<?xml version="1.0" encoding="UTF-8"?>
<svg xmlns="http://www.w3.org/2000/svg" xmlns:xlink="http://www.w3.org/1999/xlink" width="1724.88pt" height="1724.999932pt" viewBox="0 0 1724.88 1724.999932" version="1.2">
<defs>
<clipPath id="clip1">
  <path d="M 0 0.0585938 L 1724.761719 0.0585938 L 1724.761719 1724.9375 L 0 1724.9375 Z M 0 0.0585938 "/>
</clipPath>
</defs>
<g id="surface1">
<g clip-path="url(#clip1)" clip-rule="nonzero">
<path style=" stroke:none;fill-rule:nonzero;fill:rgb(100%,100%,100%);fill-opacity:1;" d="M 862.441406 0.0585938 C 386.898438 0.0585938 0 386.957031 0 862.5 C 0 1338.042969 386.898438 1724.941406 862.441406 1724.941406 C 1337.980469 1724.941406 1724.878906 1338.042969 1724.878906 862.5 C 1724.878906 386.957031 1337.980469 0.0585938 862.441406 0.0585938 Z M 862.441406 225.042969 C 1007.179688 225.042969 1124.921875 342.785156 1124.921875 487.527344 C 1124.921875 632.265625 1007.179688 750.007812 862.441406 750.007812 C 717.699219 750.007812 599.957031 632.265625 599.957031 487.527344 C 599.957031 342.785156 717.699219 225.042969 862.441406 225.042969 Z M 1312.410156 1349.964844 L 412.472656 1349.964844 C 391.773438 1349.964844 374.972656 1333.167969 374.972656 1312.46875 C 374.972656 1043.6875 593.660156 825.003906 862.441406 825.003906 C 1131.222656 825.003906 1349.90625 1043.6875 1349.90625 1312.46875 C 1349.90625 1333.167969 1333.105469 1349.964844 1312.410156 1349.964844 Z M 1312.410156 1349.964844 "/>
</g>
</g>
</svg>
