<svg xmlns="http://www.w3.org/2000/svg" viewBox="0 0 500 500"><g id="freepik--Blackboard--inject-16"><rect x="86.62" y="126.55" width="331.91" height="237.06" style="fill:#263238"></rect><rect x="94.51" y="136.02" width="313.77" height="218.48" style="fill:#455a64"></rect><path d="M408.27,354.5c0-1.73-.08-85.65-.21-218.48l.21.21-313.74.05h0l.26-.26c0,78.09,0,152.24,0,218.48l-.23-.24,313.76.24-313.76.24h-.24v-.24c0-66.24,0-140.39,0-218.48v-.26h.29l313.74.05h.21V136C408.36,268.85,408.28,352.78,408.27,354.5Z" style="fill:#263238"></path><rect x="75.81" y="363.6" width="360.96" height="9.43" style="fill:#263238"></rect><path d="M428.36,363.6c0,.15-64,.26-142.85.26s-142.87-.11-142.87-.26,64-.26,142.87-.26S428.36,363.46,428.36,363.6Z" style="fill:#455a64"></path><path d="M95.73,135.57a53.09,53.09,0,0,1-4.58-4.32,53.65,53.65,0,0,1-4.41-4.48,29.85,29.85,0,0,1,4.78,4.11A30.24,30.24,0,0,1,95.73,135.57Z" style="fill:#455a64"></path><path d="M418.55,127a46.5,46.5,0,0,1-4.83,5,47.91,47.91,0,0,1-5.2,4.69,46,46,0,0,1,4.83-5.06A48.2,48.2,0,0,1,418.55,127Z" style="fill:#455a64"></path><path d="M419.73,363.3a60,60,0,0,1-10.65-8.86,61.92,61.92,0,0,1,5.4,4.34A62.66,62.66,0,0,1,419.73,363.3Z" style="fill:#455a64"></path><path d="M363.37,250.5s0-.09,0-.26,0-.44,0-.77c0-.69,0-1.68,0-2.95,0-2.6,0-6.38-.06-11.17,0-9.6-.06-23.28-.11-39.69l.22.23-54.83,0h0l.26-.26c0,20.08,0,38.9,0,54.84l-.23-.22,39.69.11,11.17.06,2.95,0h1s-.07,0-.24,0h-.74l-2.91,0-11.12.06-39.83.11h-.22v-.23c0-15.94,0-34.76,0-54.84v-.26h.27l54.83,0h.23v.22c-.05,16.47-.09,30.2-.11,39.83,0,4.77-.05,8.53-.06,11.12q0,1.89,0,2.91c0,.32,0,.56,0,.74S363.38,250.51,363.37,250.5Z" style="fill:#fff"></path><path d="M363.37,250.5l.42-.29,1.26-.81,4.86-3.06,17.85-11.12-.09.17c0-14.31,0-33.27-.06-54l.26.26h-.16l-54-.06.1,0-18.41,10.37-5,2.81-1.32.72-.46.22.43-.28,1.3-.76,5-2.9,18.32-10.52.05,0h.05l54-.06h.42v.26c0,20.75-.05,39.71-.07,54v.11l-.09.06-18,11-4.91,3-1.29.76A4.85,4.85,0,0,1,363.37,250.5Z" style="fill:#fff"></path><path d="M387.87,181.37c.07.12-5.35,3.42-12.12,7.37s-12.3,7-12.38,6.92,5.36-3.42,12.12-7.37S387.79,181.25,387.87,181.37Z" style="fill:#fff"></path><path d="M311.14,248.25c.07.13-.46.56-1.18,1s-1.36.64-1.43.52.46-.56,1.17-1S311.06,248.13,311.14,248.25Z" style="fill:#fff"></path><path d="M316.34,245.27c.07.12-.45.56-1.17,1s-1.36.64-1.43.52.45-.56,1.17-1S316.27,245.14,316.34,245.27Z" style="fill:#fff"></path><path d="M321.54,242.28c.07.12-.45.56-1.17,1s-1.36.65-1.43.52.45-.56,1.17-1S321.47,242.15,321.54,242.28Z" style="fill:#fff"></path><path d="M326.75,239.29c.07.13-.46.56-1.18,1s-1.35.65-1.43.53.46-.56,1.18-1S326.67,239.17,326.75,239.29Z" style="fill:#fff"></path><path d="M332,236.3c.07.13-.45.56-1.17,1s-1.36.64-1.43.52.45-.56,1.17-1S331.88,236.18,332,236.3Z" style="fill:#fff"></path><path d="M333.27,231.05c.14,0,.25.67.25,1.5s-.13,1.5-.28,1.5-.25-.68-.24-1.5S333.12,231.05,333.27,231.05Z" style="fill:#fff"></path><path d="M333.31,225.05c.15,0,.26.67.25,1.5s-.12,1.5-.27,1.5-.25-.68-.25-1.5S333.17,225.05,333.31,225.05Z" style="fill:#fff"></path><path d="M333.36,219.05c.15,0,.26.67.25,1.5s-.13,1.5-.27,1.5-.26-.68-.25-1.5S333.22,219.05,333.36,219.05Z" style="fill:#fff"></path><path d="M333.41,213.05c.14,0,.25.67.25,1.5s-.13,1.5-.27,1.5-.26-.68-.25-1.5S333.27,213.05,333.41,213.05Z" style="fill:#fff"></path><path d="M333.46,207.05c.14,0,.25.67.24,1.5s-.12,1.5-.27,1.5-.25-.68-.25-1.5S333.31,207.05,333.46,207.05Z" style="fill:#fff"></path><path d="M333.5,201.05c.15,0,.26.67.25,1.5s-.13,1.5-.27,1.5-.26-.68-.25-1.5S333.36,201.05,333.5,201.05Z" style="fill:#fff"></path><path d="M333.55,195.05c.14,0,.26.67.25,1.5s-.13,1.5-.27,1.5-.26-.67-.25-1.5S333.41,195.05,333.55,195.05Z" style="fill:#fff"></path><path d="M333.6,189.05c.14,0,.25.67.25,1.5s-.13,1.5-.28,1.5-.25-.67-.24-1.5S333.45,189.05,333.6,189.05Z" style="fill:#fff"></path><path d="M333.64,183.05c.15,0,.26.67.25,1.5s-.12,1.5-.27,1.5-.25-.67-.25-1.5S333.5,183.05,333.64,183.05Z" style="fill:#fff"></path><path d="M384.87,235.39c0-.14.67-.26,1.5-.26s1.5.12,1.5.26-.67.26-1.5.26S384.87,235.53,384.87,235.39Z" style="fill:#fff"></path><path d="M378.87,235.39c0-.14.67-.26,1.5-.26s1.5.12,1.5.26-.67.26-1.5.26S378.87,235.53,378.87,235.39Z" style="fill:#fff"></path><path d="M372.87,235.39c0-.14.67-.26,1.5-.26s1.5.12,1.5.26-.67.26-1.5.26S372.87,235.53,372.87,235.39Z" style="fill:#fff"></path><path d="M366.87,235.39c0-.14.67-.26,1.5-.26s1.5.12,1.5.26-.67.26-1.5.26S366.87,235.53,366.87,235.39Z" style="fill:#fff"></path><path d="M360.87,235.39c0-.14.67-.26,1.5-.26s1.5.12,1.5.26-.67.26-1.5.26S360.87,235.53,360.87,235.39Z" style="fill:#fff"></path><path d="M354.87,235.39c0-.14.67-.26,1.5-.26s1.5.12,1.5.26-.67.26-1.5.26S354.87,235.53,354.87,235.39Z" style="fill:#fff"></path><path d="M348.87,235.39c0-.14.67-.26,1.5-.26s1.5.12,1.5.26-.67.26-1.5.26S348.87,235.53,348.87,235.39Z" style="fill:#fff"></path><path d="M342.87,235.39c0-.14.67-.26,1.5-.26s1.5.12,1.5.26-.67.26-1.5.26S342.87,235.53,342.87,235.39Z" style="fill:#fff"></path><path d="M336.87,235.39c0-.14.67-.26,1.5-.26s1.5.12,1.5.26-.67.26-1.5.26S336.87,235.53,336.87,235.39Z" style="fill:#fff"></path><path d="M333.23,235.39a.33.33,0,1,1,.32.26A.3.3,0,0,1,333.23,235.39Z" style="fill:#fff"></path><path d="M394.51,217.12a5.93,5.93,0,0,0,1.37-.06,4.27,4.27,0,0,0,2.84-2.14,5.75,5.75,0,0,0-.16-5.22,1.56,1.56,0,0,0-1.07-.86,1.86,1.86,0,0,0-1.4.37,6.56,6.56,0,0,0-1.74,2.91,13.44,13.44,0,0,0-.78,3.72h-.51c-.05-4-.08-7.44-.08-9.92,0-1.16,0-2.13,0-2.9a5.14,5.14,0,0,1,.07-1,4.43,4.43,0,0,1,.11,1c0,.78.07,1.75.13,2.91.08,2.47.18,5.94.26,9.91h-.51a13.77,13.77,0,0,1,.8-3.87,12.22,12.22,0,0,1,.75-1.69,4.31,4.31,0,0,1,1.17-1.45,2.38,2.38,0,0,1,1.8-.45,2.07,2.07,0,0,1,1.4,1.11,6,6,0,0,1,.06,5.63,4.36,4.36,0,0,1-3.13,2.17,3.53,3.53,0,0,1-1.06,0C394.62,217.19,394.5,217.14,394.51,217.12Z" style="fill:#fff"></path><path d="M367.92,175.11s0,.08-.13.19a1.64,1.64,0,0,1-.53.4,2.12,2.12,0,0,1-1.05.23,2.06,2.06,0,0,1-1.35-.57,4,4,0,0,1-.9-1.53,18.76,18.76,0,0,1-.64-1.92,21.77,21.77,0,0,1-.76-4.73l.49,0a18,18,0,0,1-.18,6.26,5.69,5.69,0,0,1-1.94,3.19,2.48,2.48,0,0,1-1.83.4,2.23,2.23,0,0,1-1.43-1.09,6.1,6.1,0,0,1,.11-5.71,6.21,6.21,0,0,1,2.85-2.64,5.09,5.09,0,0,1,1-.34c.24-.05.37-.06.37,0s-.49.15-1.28.57a6.18,6.18,0,0,0-2.61,2.62,6.06,6.06,0,0,0-.65,2.48,5.22,5.22,0,0,0,.61,2.81,1.78,1.78,0,0,0,1.13.85,1.9,1.9,0,0,0,1.44-.34,5.24,5.24,0,0,0,1.73-2.9,18.14,18.14,0,0,0,.19-6.08l.49,0a21.94,21.94,0,0,0,.67,4.64c.17.69.37,1.32.57,1.91a4,4,0,0,0,.78,1.44,2,2,0,0,0,2.12.41A4,4,0,0,0,367.92,175.11Z" style="fill:#fff"></path><path d="M275.58,236.36s0,.11.05.3l.09.89c.07.81.17,1.95.29,3.4.23,3,.58,7.24.6,12.56A71.59,71.59,0,0,1,274.49,272a46.9,46.9,0,0,1-4,10.28,40.27,40.27,0,0,1-7.14,9.45c-2.85,2.89-5.81,5.51-8.28,8.39a34.26,34.26,0,0,0-5.69,9.27,53.24,53.24,0,0,0-3.68,18.09c-.22,5.29,0,9.58.14,12.54.07,1.46.12,2.6.16,3.42,0,.36,0,.66,0,.88a1.5,1.5,0,0,1,0,.31,1.4,1.4,0,0,1,0-.3c0-.23-.05-.52-.09-.89-.06-.81-.15-1.95-.26-3.4-.18-3-.47-7.26-.3-12.57a53.13,53.13,0,0,1,3.6-18.26,34.58,34.58,0,0,1,5.75-9.42c2.5-2.92,5.47-5.56,8.3-8.43a40.26,40.26,0,0,0,7.07-9.32,47.45,47.45,0,0,0,4-10.16,72.76,72.76,0,0,0,2.21-18.39c0-5.3-.27-9.58-.43-12.54-.08-1.46-.15-2.6-.2-3.41,0-.37,0-.66,0-.89A1.5,1.5,0,0,1,275.58,236.36Z" style="fill:#fff"></path><path d="M264.39,253.42a17.26,17.26,0,0,1-1.24-2.68c-.71-1.67-1.65-4-2.67-6.59l-.16-.4.47,0A28.3,28.3,0,0,0,258.3,250c-.45,1.66-.6,2.72-.68,2.71A9.64,9.64,0,0,1,258,250a23.81,23.81,0,0,1,2.39-6.42l.27-.49.2.52c.05.13.1.27.16.4,1,2.59,1.9,4.94,2.52,6.65A15.85,15.85,0,0,1,264.39,253.42Z" style="fill:#fff"></path><path d="M259.3,348.1c-.14,0,.15-23.39.66-52.23s1-52.23,1.18-52.23-.15,23.39-.66,52.24S259.45,348.11,259.3,348.1Z" style="fill:#fff"></path><path d="M281.54,294c0,.14-8.18.26-18.26.26S245,294.18,245,294s8.17-.26,18.26-.26S281.54,293.9,281.54,294Z" style="fill:#fff"></path><path d="M277.48,298.05a19.54,19.54,0,0,1,2.73-1.33c1.71-.76,4.09-1.79,6.74-2.9l0,.49-.3-.1c-2.81-.93-5.33-1.8-7.16-2.46a18.12,18.12,0,0,1-2.91-1.16,19,19,0,0,1,3,.81c1.85.57,4.4,1.38,7.2,2.31l.31.1.66.22-.65.27c-2.65,1.11-5.06,2.08-6.8,2.76A16.36,16.36,0,0,1,277.48,298.05Z" style="fill:#fff"></path><path d="M281.63,286.81s-.06.15-.24.36l-.59.69.43-.83c.34-.65,1.23-2,2.32-3.61a21.48,21.48,0,0,1,2.9-3.73,22.26,22.26,0,0,1-2.47,4c-1.09,1.57-2.08,2.88-2.57,3.43l-.16-.14C281.47,286.85,281.61,286.78,281.63,286.81Z" style="fill:#fff"></path><path d="M287.9,286.1a18.77,18.77,0,0,1-3.29-3.05,20,20,0,0,1-2.91-3.41,18.77,18.77,0,0,1,3.29,3.05A20.4,20.4,0,0,1,287.9,286.1Z" style="fill:#fff"></path><path d="M254.67,284.68s.25-.22.79-.11a2,2,0,0,1,1.42,1.59,5.86,5.86,0,0,1-.56,3.13,3.8,3.8,0,0,1-1.15,1.56,2.27,2.27,0,0,1-3.62-1,3.54,3.54,0,0,1-.17-1.94,4.82,4.82,0,0,1,1.5-2.81,2.5,2.5,0,0,1,2.07-.56c.51.12.72.35.7.36s-.26-.12-.73-.16a2.38,2.38,0,0,0-1.8.64,4.5,4.5,0,0,0-1.26,2.61,3.05,3.05,0,0,0,.16,1.66,2,2,0,0,0,1.21,1.15,1.92,1.92,0,0,0,1.63-.37,3.34,3.34,0,0,0,1-1.34,5.76,5.76,0,0,0,.64-2.88,1.77,1.77,0,0,0-1.12-1.45A2.56,2.56,0,0,0,254.67,284.68Z" style="fill:#fff"></path><path d="M249.62,250.73c-.12.08-.88-.77-1.71-1.91a6.4,6.4,0,0,1-1.28-2.22c.11-.08.88.77,1.7,1.91A6.53,6.53,0,0,1,249.62,250.73Z" style="fill:#fff"></path><path d="M247.44,256.06a30.29,30.29,0,0,1,1.73-5.38,30.34,30.34,0,0,1,2.22-5.2,31.32,31.32,0,0,1-1.73,5.38A32.33,32.33,0,0,1,247.44,256.06Z" style="fill:#fff"></path><path d="M306.67,296.06a29.89,29.89,0,0,1-5.3-5.93,30.74,30.74,0,0,1,5.3,5.93Z" style="fill:#fff"></path><path d="M305.5,304.37a9.54,9.54,0,0,1,.47-2.32c.37-1.42.95-3.36,1.7-5.46s1.53-4,2.14-5.3a9.13,9.13,0,0,1,1.11-2.1,12.76,12.76,0,0,1-.77,2.24c-.52,1.36-1.24,3.24-2,5.33s-1.38,4-1.84,5.39A12.39,12.39,0,0,1,305.5,304.37Z" style="fill:#fff"></path><path d="M324.22,293.47a32.69,32.69,0,0,1-8.23,0,31.49,31.49,0,0,1,8.23,0Z" style="fill:#fff"></path><path d="M325.15,300.19a43.52,43.52,0,0,1-9.5,0,43.52,43.52,0,0,1,9.5,0Z" style="fill:#fff"></path><path d="M338,303.34a67.92,67.92,0,0,1-7.77-8.94,33.68,33.68,0,0,1,4.08,4.3A34.83,34.83,0,0,1,338,303.34Z" style="fill:#fff"></path><path d="M337.44,293.12a10.93,10.93,0,0,1-1.1,2.06L333.48,300l-2.84,4.84a12.58,12.58,0,0,1-1.27,2,9.22,9.22,0,0,1,.94-2.14c.66-1.28,1.61-3,2.72-4.93s2.19-3.57,3-4.76A9.78,9.78,0,0,1,337.44,293.12Z" style="fill:#fff"></path><path d="M345.19,290.36c0,.12-2.45-.35-6.07-.19l-.44,0,.24-.37c.87-1.38,1.86-2.93,2.9-4.59.81-1.34,1.93-2.59,1.63-3.86a1.39,1.39,0,0,0-1.13-1.11,2.38,2.38,0,0,0-1.53.22,4.82,4.82,0,0,0-1.63,1.7,3.57,3.57,0,0,1-.52.75,2.83,2.83,0,0,1,.34-.85,4.68,4.68,0,0,1,1.64-1.92,2.69,2.69,0,0,1,1.78-.33,1.86,1.86,0,0,1,1.52,1.44,3.2,3.2,0,0,1-.42,2.25c-.38.68-.81,1.31-1.24,2l-3,4.56-.2-.35a25.52,25.52,0,0,1,4.44.26A6.05,6.05,0,0,1,345.19,290.36Z" style="fill:#fff"></path><path d="M370.44,282.74s.34.23,1,.49a4.05,4.05,0,0,0,2.91,0,3.38,3.38,0,0,0,2.08-3.45,2.73,2.73,0,0,0-1.29-2,2.78,2.78,0,0,0-2.55-.28l-.19-.49.32-.1a6.55,6.55,0,0,0,2.53-1.31,2.42,2.42,0,0,0,.84-2.26,2.48,2.48,0,0,0-1.42-1.69,3.08,3.08,0,0,0-2-.13,4.6,4.6,0,0,0-2.46,1.73c-.44.59-.63,1-.67.95a3.21,3.21,0,0,1,.5-1.06,4.6,4.6,0,0,1,2.53-2,3.46,3.46,0,0,1,2.28.09,2.75,2.75,0,0,1,.77,4.72,6.85,6.85,0,0,1-2.72,1.43l-.32.11-.18-.49a3.36,3.36,0,0,1,4.53,2.75,3.77,3.77,0,0,1-2.43,3.83,4.13,4.13,0,0,1-3.12-.19,3.47,3.47,0,0,1-.72-.46C370.5,282.83,370.43,282.75,370.44,282.74Z" style="fill:#fff"></path><path d="M385.66,270.52a.64.64,0,0,1,.42-.16,1.38,1.38,0,0,1,1.12.62,1.66,1.66,0,0,1,.32.92,2.43,2.43,0,0,1-.3,1.1,8.3,8.3,0,0,1-1.81,2,22.25,22.25,0,0,1-2.56,2,3.28,3.28,0,0,0-1.81,2.74,3.12,3.12,0,0,0,2.17,2.8,4.35,4.35,0,0,0,3.93-.52,2.56,2.56,0,0,0,1.09-1.62,2.37,2.37,0,0,0-.52-1.82,6.42,6.42,0,0,0-3.31-2,7.64,7.64,0,0,1-3.28-1.81,3.28,3.28,0,0,1-.85-1.53,2.53,2.53,0,0,1,.16-1.62,3.76,3.76,0,0,1,1.93-1.89,6.39,6.39,0,0,1,2-.5c.55-.05,1-.06,1.27-.06a1.25,1.25,0,0,1,.44,0s-.61.07-1.68.23a6.69,6.69,0,0,0-1.87.56,3.53,3.53,0,0,0-1.72,1.77,2.48,2.48,0,0,0,.67,2.72,7.23,7.23,0,0,0,3.12,1.65,6.84,6.84,0,0,1,3.56,2.12,2.88,2.88,0,0,1,.62,2.21,3.09,3.09,0,0,1-1.29,2A4.88,4.88,0,0,1,383,283a3.83,3.83,0,0,1-1.78-1.28,3.53,3.53,0,0,1-.7-2,2.89,2.89,0,0,1,.65-1.91,6,6,0,0,1,1.4-1.2,26.22,26.22,0,0,0,2.56-1.89,7.93,7.93,0,0,0,1.79-1.86,1.58,1.58,0,0,0,.08-1.75,1.3,1.3,0,0,0-1-.64A1.77,1.77,0,0,0,385.66,270.52Z" style="fill:#fff"></path><path d="M395.73,278.5a5.85,5.85,0,0,1-1.75.38l-1.91.26a9.83,9.83,0,0,1-1.18.1,1.42,1.42,0,0,1-.7-.2,1,1,0,0,1-.43-.69,2.56,2.56,0,0,1,.33-1.31c.15-.35.31-.7.46-1l.81-1.75a5.76,5.76,0,0,1,.87-1.56,6.48,6.48,0,0,1-.53,1.7c-.23.58-.47,1.18-.71,1.8-.14.35-.29.7-.44,1.05a2.33,2.33,0,0,0-.27,1c0,.29.29.43.64.45a10.32,10.32,0,0,0,1.1-.07l1.92-.15A6.32,6.32,0,0,1,395.73,278.5Z" style="fill:#fff"></path><path d="M396.69,283.89a37.9,37.9,0,0,1-.75-6.31,38,38,0,0,1-.23-6.34,39.18,39.18,0,0,1,.75,6.3A39.44,39.44,0,0,1,396.69,283.89Z" style="fill:#fff"></path><path d="M375.54,302.8c.06,0,.11.4.17,1.11h-.28c-.18-1.72-.38-3.7-.61-6-.42-3.9-.88-7.06-.74-7.08a7.45,7.45,0,0,1,.52,2c.25,1.27.52,3,.73,5a59.3,59.3,0,0,1,.38,6l-.28,0A3.29,3.29,0,0,1,375.54,302.8Z" style="fill:#fff"></path><path d="M387.06,289.73a22.35,22.35,0,0,1-6.54,1.84,11.62,11.62,0,0,1,3.2-1.17A11.2,11.2,0,0,1,387.06,289.73Z" style="fill:#fff"></path><path d="M380.3,301.55a5.86,5.86,0,0,1,.8.16,4.44,4.44,0,0,0,2.14-.2,4.21,4.21,0,0,0,2.39-2,3.23,3.23,0,0,0,.39-1.77,2.23,2.23,0,0,0-.83-1.64,2.12,2.12,0,0,0-2.08-.21,8,8,0,0,0-1.85,1.08l-.34.25,0-.41a25.39,25.39,0,0,1-.05-4.23,5.84,5.84,0,0,1,.23-1.61c.13,0-.11,2.37.29,5.79l-.38-.16a7.68,7.68,0,0,1,2-1.18,2.61,2.61,0,0,1,2.57.27,2.77,2.77,0,0,1,1,2,3.61,3.61,0,0,1-.48,2,4.47,4.47,0,0,1-2.69,2.1,4.39,4.39,0,0,1-2.3.05C380.53,301.75,380.28,301.57,380.3,301.55Z" style="fill:#fff"></path><path d="M366.14,290.25c0,.15-.94.26-2.09.26s-2.09-.11-2.09-.26a8.53,8.53,0,0,1,4.18,0Z" style="fill:#fff"></path><path d="M136.85,294.78c-.15,0-.26-21.84-.26-48.79s.11-48.79.26-48.79.26,21.84.26,48.79S137,294.78,136.85,294.78Z" style="fill:#fff"></path><path d="M139.77,198.05a42.17,42.17,0,0,1-3.32-5.67l.47,0,0,.12a42.27,42.27,0,0,1-2.84,6.08,44.27,44.27,0,0,1,2.36-6.28l.05-.12.21-.5.25.47A41.55,41.55,0,0,1,139.77,198.05Z" style="fill:#fff"></path><path d="M136.31,185.68c-.09.11-.89-.42-1.53-1.39s-.8-1.92-.67-1.95.51.76,1.11,1.66S136.4,185.57,136.31,185.68Z" style="fill:#fff"></path><path d="M134.77,188.49A20,20,0,0,1,136,185a19.72,19.72,0,0,1,1.41-3.41,9.88,9.88,0,0,1-.93,3.6A10,10,0,0,1,134.77,188.49Z" style="fill:#fff"></path><path d="M129.86,210.05a28.5,28.5,0,0,0,.89-3,29.44,29.44,0,0,0,.07-3.12,5.57,5.57,0,0,1-1,6.12Z" style="fill:#fff"></path><path d="M130.82,206c.05,0-.13.43-.75.58a1.46,1.46,0,1,1-.13-2.88c.63.09.84.47.79.5s-.32-.16-.81-.13a1.07,1.07,0,1,0,.1,2.14C130.51,206.16,130.76,205.92,130.82,206Z" style="fill:#fff"></path><path d="M212.81,287.85c0,.15-18.69.26-41.74.26s-41.75-.11-41.75-.26,18.69-.26,41.75-.26S212.81,287.71,212.81,287.85Z" style="fill:#fff"></path><path d="M213.67,287.75a12.49,12.49,0,0,1-3.44-1.09,12.91,12.91,0,0,1-3.25-1.58,24.81,24.81,0,0,1,6.69,2.67Z" style="fill:#fff"></path><path d="M214.58,288.06a9.12,9.12,0,0,1-2.76,1.24,9.31,9.31,0,0,1-2.94.76,17.51,17.51,0,0,1,5.7-2Z" style="fill:#fff"></path><path d="M132.93,290.5a2.64,2.64,0,0,1,1.08,1.74,3.76,3.76,0,0,1-.17,2.26,2.58,2.58,0,0,1-.84,1.13,1.42,1.42,0,0,1-1.58.06,3,3,0,0,1-1.2-2.53,2.63,2.63,0,0,1,.92-2.1,2.14,2.14,0,0,1,1.47-.47c.37,0,.54.17.52.19s-.2,0-.52,0a2.12,2.12,0,0,0-1.23.55,2.34,2.34,0,0,0-.68,1.81,2.59,2.59,0,0,0,1,2.1.9.9,0,0,0,1,0,2.14,2.14,0,0,0,.69-.9,3.5,3.5,0,0,0,.24-2A6.32,6.32,0,0,0,132.93,290.5Z" style="fill:#fff"></path><path d="M200.91,291.6s.3-.17.7.17a1,1,0,0,1,.35.83,1.7,1.7,0,0,1-.49,1.07c-.59.65-1.66.89-2.16,1.69a1.41,1.41,0,0,0,0,1.35,1.33,1.33,0,0,0,1.27.63,1.31,1.31,0,0,0,1.1-.9,1.37,1.37,0,0,0-.27-1.33,3.56,3.56,0,0,0-1.1-.88,1.72,1.72,0,0,1-1-1,1.42,1.42,0,0,1,.27-1.17,1.58,1.58,0,0,1,.71-.51,1.13,1.13,0,0,1,.71-.11c0,.05-.25.09-.63.29a1.6,1.6,0,0,0-.55.5,1.08,1.08,0,0,0-.15.9c.16.66,1.4.76,2.12,1.7a1.88,1.88,0,0,1,.38,1.8,1.8,1.8,0,0,1-1.53,1.25,1.82,1.82,0,0,1-1.76-.9,1.85,1.85,0,0,1,0-1.85,3.17,3.17,0,0,1,1.24-1,5.21,5.21,0,0,0,1.07-.68,1.4,1.4,0,0,0,.46-.83.85.85,0,0,0-.2-.67C201.19,291.59,200.9,291.65,200.91,291.6Z" style="fill:#fff"></path><path d="M200.67,289.65a10.39,10.39,0,0,1,0-4.62,10.39,10.39,0,0,1,0,4.62Z" style="fill:#fff"></path><path d="M223,288a4.19,4.19,0,0,1-1.43.22l-1.57.09a.58.58,0,0,1-.35-.07.43.43,0,0,1-.18-.46.91.91,0,0,1,.32-.49l.69-.71a2.28,2.28,0,0,0,.84-1.47.93.93,0,0,0-.65-1,1.52,1.52,0,0,0-.91.17c-.23.1-.36.15-.38.12s.07-.14.28-.29a1.53,1.53,0,0,1,1.07-.37,1.32,1.32,0,0,1,1.07,1.34,2.57,2.57,0,0,1-.93,1.81l-.7.7c-.13.12-.22.22-.22.26s-.09,0-.08,0h0a.14.14,0,0,0,0-.06H220l1.57,0A4.23,4.23,0,0,1,223,288Z" style="fill:#fff"></path><path d="M148,287.85a12.53,12.53,0,0,1-.07-1.43c0-1,0-2.27-.07-3.84-.05-3.24-.11-7.73-.12-12.86l.26.25h-4.85c.51-.52.14-.14.26-.26h0v1.36c0,.45,0,.91,0,1.35v2.65c0,1.72,0,3.36,0,4.91,0,3.06-.06,5.73-.08,7.84l-.15-.16,3.52.09c.84,0,1.31.05,1.33.07a9.92,9.92,0,0,1-1.23.07l-3.62.09H143v-.16c0-2.11-.05-4.78-.08-7.84,0-1.55,0-3.19,0-4.91v-5.36h0c.11-.12-.27.26.26-.26h5.1v.26c0,5.24-.06,9.81-.11,13,0,1.54-.06,2.81-.08,3.78A10.45,10.45,0,0,1,148,287.85Z" style="fill:#fff"></path><path d="M194.15,287.86a2.54,2.54,0,0,1,0-.56q0-.6,0-1.53c0-1.38-.05-3.27-.08-5.6-.05-4.74-.1-11.31-.11-18.75l.26.25H189.3c.51-.52.14-.14.25-.26h0v8.06c0,2.57,0,5,0,7.28,0,4.49-.07,8.29-.09,11.09l-.14-.14,3.55.08,1,0,.35,0s-.41,0-1.23.06l-3.63.07h-.13v-.14c0-2.8-.06-6.6-.09-11.09,0-2.26,0-4.71,0-7.28v-4c0-.67,0-1.35,0-2v-2.06h0l.27-.26h5.1v.26c0,7.55-.06,14.2-.11,18.93,0,2.31-.06,4.18-.08,5.55q0,.89,0,1.47A2.83,2.83,0,0,1,194.15,287.86Z" style="fill:#fff"></path><path d="M159.64,287.85a6.56,6.56,0,0,1,0-.68c0-.49,0-1.12,0-1.91,0-1.7,0-4.07-.08-7,0-5.94-.06-14.12-.11-23.36l.26.26h-4.85c.52-.52.14-.14.26-.25h0v5.23c0,1.71,0,3.39,0,5,0,3.26,0,6.35,0,9.18,0,5.63-.07,10.28-.1,13.49l-.12-.12,3.57.07.94,0,.34,0a.94.94,0,0,1-.29,0l-.92,0-3.64.07h-.13v-.13c0-3.21,0-7.86-.1-13.49,0-2.83,0-5.92,0-9.18,0-1.63,0-3.31,0-5v-5.23h0c.11-.12-.26.25.26-.27h5.11v.26c-.05,9.31-.09,17.56-.11,23.54,0,2.9-.06,5.25-.08,6.93,0,.77,0,1.38,0,1.85A4.52,4.52,0,0,1,159.64,287.85Z" style="fill:#fff"></path><path d="M171.07,287.75a1.58,1.58,0,0,1,0-.28c0-.2,0-.45,0-.77,0-.72,0-1.7,0-3,0-2.6-.05-6.29-.08-10.87,0-9.19-.07-21.9-.11-36.16l.26.26h-4.85c.51-.52.14-.13.26-.25V241c0,1.39,0,2.78,0,4.15v8c0,5.17,0,10,0,14.45-.05,8.79-.08,15.83-.11,20.2l-.1-.1,3.57.06.94,0,.34,0-.3,0-.92,0-3.63.06h-.11v-.11c0-4.37-.06-11.41-.11-20.2,0-4.42,0-9.28,0-14.45q0-3.9,0-8v-8.38c.11-.12-.27.25.26-.27h5.11v.26c-.05,14.34-.08,27.11-.11,36.35,0,4.55-.06,8.23-.08,10.81,0,1.23,0,2.2,0,2.9,0,.3,0,.55,0,.74S171.07,287.76,171.07,287.75Z" style="fill:#fff"></path><path d="M182.77,287.75s0-.16,0-.46,0-.75,0-1.31c0-1.16,0-2.84,0-5,0-4.35,0-10.62-.08-18.38,0-15.53-.06-37-.11-61l.26.26h-4.84c.51-.52.14-.13.25-.24v14.82c0,4.82,0,9.52,0,14.06,0,9.08,0,17.51,0,25-.06,15-.1,26.41-.13,32.22l-.08-.08,3.64.05.9,0h.31a1.21,1.21,0,0,1-.28,0l-.89,0-3.68,0h-.08v-.08c0-5.81-.07-17.21-.13-32.22,0-7.53,0-16,0-25,0-4.54,0-9.24,0-14.06V201.61c.12-.12-.26.24.27-.28H183v.26c0,24.06-.08,45.62-.1,61.2,0,7.73-.06,14-.08,18.32,0,2.13,0,3.79,0,4.95l0,1.27A1.83,1.83,0,0,1,182.77,287.75Z" style="fill:#fff"></path><path d="M264,161.64l.53.16c.35.13.88.28,1.55.55a30.39,30.39,0,0,1,5.58,2.91A30.83,30.83,0,0,1,279,172a27.24,27.24,0,0,1,5.48,11.94,26.62,26.62,0,0,1-2,15.72,24.54,24.54,0,0,1-5.1,7.33,23.26,23.26,0,0,1-3.65,2.94c-.69.4-1.37.83-2.09,1.19s-1.44.72-2.21,1c-6.11,2.42-13.13,2.52-20.11,1.86-3.5-.34-7-.85-10.64-1.41a64.88,64.88,0,0,1-10.78-2.5,27.43,27.43,0,0,1-9.65-5.42,21.51,21.51,0,0,1-3.52-4.17,22.82,22.82,0,0,1-2.25-4.87,25.51,25.51,0,0,1-1-10.33,27.65,27.65,0,0,1,2.83-9.54,31.77,31.77,0,0,1,13-12.78,43.13,43.13,0,0,1,15.2-4.85,58.93,58.93,0,0,1,13.19-.08,86.12,86.12,0,0,1,9.83,1.61c2.67.59,4.72,1.15,6.11,1.53l1.57.46.53.17s-.19,0-.54-.12l-1.59-.41c-1.39-.35-3.45-.87-6.12-1.43a88.41,88.41,0,0,0-9.82-1.52,58.59,58.59,0,0,0-13.11.16,43,43,0,0,0-15.05,4.86,31.46,31.46,0,0,0-12.76,12.62,27.16,27.16,0,0,0-2.77,9.37,25.16,25.16,0,0,0,1,10.12,22,22,0,0,0,2.19,4.75,20.8,20.8,0,0,0,3.44,4.06,26.94,26.94,0,0,0,9.47,5.32A64.88,64.88,0,0,0,238.73,212c3.58.56,7.12,1.07,10.61,1.41,6.94.67,13.89.57,19.88-1.8a23.27,23.27,0,0,0,12.84-12.18A26.32,26.32,0,0,0,284.13,184a27.23,27.23,0,0,0-5.35-11.82,30.88,30.88,0,0,0-7.2-6.74,33.16,33.16,0,0,0-5.51-3c-.66-.28-1.18-.45-1.53-.59S264,161.64,264,161.64Z" style="fill:#fff"></path><path d="M229.09,195.46a4.1,4.1,0,0,1-1.07.13c-.69,0-1.69.1-2.92.15l-1,0a3.56,3.56,0,0,1-1.11-.05.87.87,0,0,1-.55-.43,1.55,1.55,0,0,1-.18-.63l-.08-1.2c-.09-1.64-.2-3.42-.31-5.29s-.22-3.65-.23-5.31a4.77,4.77,0,0,1,.55-2.33,3.27,3.27,0,0,1,1.6-1.37,6.47,6.47,0,0,1,2.95-.32,3,3,0,0,1,1.06.19,6.45,6.45,0,0,1-1.07,0,6.87,6.87,0,0,0-2.79.46,2.91,2.91,0,0,0-1.37,1.24,4.52,4.52,0,0,0-.45,2.13c0,1.59.19,3.4.27,5.27s.19,3.65.27,5.29c.08.78-.09,1.75.46,1.88a3.75,3.75,0,0,0,1,.06h1c1.23,0,2.22,0,2.91,0A4.78,4.78,0,0,1,229.09,195.46Z" style="fill:#fff"></path><path d="M227.61,186.89a7.51,7.51,0,0,1-2.72.31,7.29,7.29,0,0,1-2.73-.2,7.69,7.69,0,0,1,2.72-.32A7.13,7.13,0,0,1,227.61,186.89Z" style="fill:#fff"></path><path d="M241.24,184.46a24.62,24.62,0,0,1-4.14.21,26.21,26.21,0,0,1-4.15.05,12.49,12.49,0,0,1,4.13-.57A12.7,12.7,0,0,1,241.24,184.46Z" style="fill:#fff"></path><path d="M242,190.72a13.26,13.26,0,0,1-4.1.28,13.06,13.06,0,0,1-4.07-.48,21,21,0,0,1,4.09,0A20.9,20.9,0,0,1,242,190.72Z" style="fill:#fff"></path><path d="M264,194.48s0-.57,0-1.6a15.91,15.91,0,0,0-.79-4.31,4.38,4.38,0,0,0-1.51-2.47,1.31,1.31,0,0,0-1.43.1,3.48,3.48,0,0,0-1.08,1.35c-1.16,2.24-1.32,5.12-1.33,8.13l-.51,0a34.75,34.75,0,0,0-.07-6,23.1,23.1,0,0,0-.35-2.42,3.08,3.08,0,0,0-1.1-1.89,1.64,1.64,0,0,0-1.91,0,2.88,2.88,0,0,0-1.2,1.65,11.19,11.19,0,0,0-.37,2.08c-.08.69-.14,1.37-.17,2a35.66,35.66,0,0,0,0,3.73l-.4,0c-.11-2.94-.2-5.35-.27-7.11,0-.79,0-1.44,0-1.94a2.94,2.94,0,0,1,0-.68,3,3,0,0,1,.09.67c0,.51.09,1.15.15,1.94.11,1.76.26,4.17.45,7.1l-.4,0a33.44,33.44,0,0,1-.05-3.78c0-.67.08-1.36.15-2.06a11.61,11.61,0,0,1,.38-2.18,3.42,3.42,0,0,1,1.39-1.93,2.4,2.4,0,0,1,1.24-.37,2.2,2.2,0,0,1,1.24.44,3.55,3.55,0,0,1,1.3,2.18,23.36,23.36,0,0,1,.37,2.49,34.78,34.78,0,0,1,.06,6.11l-.51,0c0-3,.2-6,1.45-8.32a3.93,3.93,0,0,1,1.24-1.5,1.73,1.73,0,0,1,1.85-.09,4.71,4.71,0,0,1,1.64,2.71,15.2,15.2,0,0,1,.65,4.41,10.36,10.36,0,0,1-.07,1.19A1.25,1.25,0,0,1,264,194.48Z" style="fill:#fff"></path><path d="M275.51,193.65a1.8,1.8,0,0,1-.63.44,4.86,4.86,0,0,1-2,.5,5.39,5.39,0,0,1-3-.82,5.3,5.3,0,0,1-1.68-6.93,5.34,5.34,0,0,1,2.3-2.1,5,5,0,0,1,2-.49,1.52,1.52,0,0,1,.76.11,7.4,7.4,0,0,0-2.63.7,5.2,5.2,0,0,0-2.05,2,4.95,4.95,0,0,0,1.52,6.29,5.19,5.19,0,0,0,2.75.85A7.36,7.36,0,0,0,275.51,193.65Z" style="fill:#fff"></path><path d="M278.6,178.81a27.75,27.75,0,0,0-5.83,1l-.88.29.65-.67a17.66,17.66,0,0,0,3.25-4,6,6,0,0,0,.69-4c-.14-.6-.51-1.09-1-1.11a3.12,3.12,0,0,0-1.47.41,5.38,5.38,0,0,0-1.81,1.45c-.35.43-.5.71-.53.69s.05-.33.37-.81a5,5,0,0,1,1.8-1.66,3.54,3.54,0,0,1,1.67-.51,1.37,1.37,0,0,1,1,.46,2.31,2.31,0,0,1,.49,1,6.21,6.21,0,0,1-.69,4.39,16.64,16.64,0,0,1-3.39,4.05l-.23-.39a17.11,17.11,0,0,1,4.31-.69A5.7,5.7,0,0,1,278.6,178.81Z" style="fill:#fff"></path><path d="M392.63,300.67a4.66,4.66,0,0,1,.87-.25,7,7,0,0,0,2.18-1,4.25,4.25,0,0,0,1.8-2.85,3.21,3.21,0,0,0-.39-1.92,2.4,2.4,0,0,0-1.63-1.2,2.21,2.21,0,0,0-2,.58l-.37-.35a10.09,10.09,0,0,1,1.56-1.11,2.45,2.45,0,0,0,1-1.15,1,1,0,0,0-.23-1.17,1.6,1.6,0,0,0-1.1-.37,3.38,3.38,0,0,0-1.64.69c-.35.25-.55.4-.57.37s.13-.21.46-.51a3.17,3.17,0,0,1,1.73-.88,1.92,1.92,0,0,1,1.37.4,1.43,1.43,0,0,1,.4,1.62,2.87,2.87,0,0,1-1.18,1.4,9.42,9.42,0,0,0-1.46,1.06l-.37-.35a2.7,2.7,0,0,1,2.51-.74,2.89,2.89,0,0,1,2,1.46,3.56,3.56,0,0,1,.42,2.23,4.53,4.53,0,0,1-2.06,3.09,6.13,6.13,0,0,1-2.34.89A2.5,2.5,0,0,1,392.63,300.67Z" style="fill:#fff"></path><path d="M405.5,305.57c0,.14-7.83,1.37-17.53,2.75s-17.58,2.37-17.6,2.23,7.83-1.38,17.53-2.75S405.48,305.43,405.5,305.57Z" style="fill:#fff"></path><path d="M342.78,310.76c0,.14-7.75,1.05-17.35,2S308,314.45,308,314.31s7.75-1.06,17.35-2S342.77,310.62,342.78,310.76Z" style="fill:#fff"></path><path d="M344.71,315.09c0,.14-7.27,1.09-16.26,2.11s-16.3,1.73-16.32,1.59,7.26-1.09,16.26-2.11S344.69,315,344.71,315.09Z" style="fill:#fff"></path><rect x="216" y="360.05" width="34.41" height="3.75" style="fill:#fafafa"></rect><path d="M263.9,320.23v43.52h74.82Zm11.48,17.52,31.1,18.42h-31.1Z" style="fill:#FF5A6D"></path><path d="M271.09,324.41a8.73,8.73,0,0,1-1.35,2.66,8.44,8.44,0,0,1-1.79,2.39,17.25,17.25,0,0,1,3.14-5Z" style="fill:#263238"></path><path d="M282.19,330.79a8.43,8.43,0,0,1-1.33,2.59,8.26,8.26,0,0,1-1.78,2.32,16.76,16.76,0,0,1,3.11-4.91Z" style="fill:#263238"></path><path d="M293.29,337.18a8.58,8.58,0,0,1-1.6,2.44,8.38,8.38,0,0,1-2,2.11,8.41,8.41,0,0,1,1.59-2.44C292.28,338,293.17,337.09,293.29,337.18Z" style="fill:#263238"></path><path d="M304.19,343.81a8.33,8.33,0,0,1-1.6,2.44,8.17,8.17,0,0,1-2,2.11,8.3,8.3,0,0,1,1.59-2.43C303.18,344.67,304.07,343.72,304.19,343.81Z" style="fill:#263238"></path><path d="M315.58,350.34a8.79,8.79,0,0,1-1.47,2.6,8.54,8.54,0,0,1-1.89,2.31,8.66,8.66,0,0,1,1.47-2.6A8.54,8.54,0,0,1,315.58,350.34Z" style="fill:#263238"></path><path d="M327.42,357.21a7.61,7.61,0,0,1-1.32,2.47,7.75,7.75,0,0,1-1.74,2.2,7.33,7.33,0,0,1,1.31-2.48A7.74,7.74,0,0,1,327.42,357.21Z" style="fill:#263238"></path><path d="M274.55,326.42c.12.08-.13.7-.56,1.4s-.88,1.19-1,1.12.13-.7.56-1.4S274.43,326.35,274.55,326.42Z" style="fill:#263238"></path><path d="M278.19,328.45c.12.08-.13.7-.56,1.4s-.88,1.19-1,1.11.13-.7.56-1.39S278.07,328.37,278.19,328.45Z" style="fill:#263238"></path><path d="M286.28,333.21c.12.07-.13.7-.56,1.39s-.88,1.2-1,1.12.13-.7.56-1.39S286.16,333.13,286.28,333.21Z" style="fill:#263238"></path><path d="M289.92,335.24c.12.07-.13.7-.56,1.39s-.88,1.2-1,1.12.13-.7.56-1.39S289.8,335.16,289.92,335.24Z" style="fill:#263238"></path><path d="M297.23,339.77c.13.08-.12.7-.56,1.39s-.87,1.2-1,1.12.13-.7.56-1.39S297.11,339.69,297.23,339.77Z" style="fill:#263238"></path><path d="M300.7,341.8c.13.08-.12.7-.55,1.39s-.88,1.2-1,1.12.13-.7.56-1.39S300.58,341.72,300.7,341.8Z" style="fill:#263238"></path><path d="M308.19,346.12c.13.08-.12.7-.55,1.4s-.88,1.19-1,1.12.13-.7.56-1.4S308.07,346.05,308.19,346.12Z" style="fill:#263238"></path><path d="M312.22,348.5c.12.07-.13.7-.56,1.39s-.88,1.2-1,1.12.13-.7.56-1.39S312.1,348.42,312.22,348.5Z" style="fill:#263238"></path><path d="M319.45,352.73c.12.08-.13.7-.56,1.4s-.87,1.19-1,1.12.13-.7.56-1.4S319.33,352.66,319.45,352.73Z" style="fill:#263238"></path><path d="M323.63,355.13c.12.07-.13.7-.56,1.39s-.88,1.2-1,1.12.13-.7.56-1.4S323.51,355.05,323.63,355.13Z" style="fill:#263238"></path></g><g id="freepik--Character--inject-16"><path d="M62.1,231.34a8.94,8.94,0,1,0-7.51,13.13c4.41-.19,8-3.52,11-6.75" style="fill:#263238"></path><path d="M65.62,229.69a1.83,1.83,0,0,0-2.16-1.44,2.72,2.72,0,0,0-1.93,2,5.5,5.5,0,0,0,.12,2.87,11.76,11.76,0,0,0,2,4c.63.82,1.63,1.63,2.59,1.26s1.17-1.75,1.07-2.83a19.06,19.06,0,0,0-2.08-7" style="fill:#FF5A6D"></path><path d="M90.49,190.53c4.73-6.91,10.86-13,18.35-16.72s16.43-4.91,24.36-2.24,14.59,9.46,16.14,17.68c1.23,6.52.17,16.66,5,21.16,10,9.2,8.46,26.63,2.6,36.59,0,0-9.07,11,.72,21.11,0,0,5.77,4.09,2.88,15.18-4.5,17.31,15.21,26.93,3.29,24.23L124,303.13,119.55,258" style="fill:#263238"></path><path d="M67,214.9c-2.5,1.83-3.37,5.24-3.14,8.33s1.37,6,2.17,9,1.21,6.26,0,9.13c-2,4.9-7.69,6.9-12,10a24.11,24.11,0,0,0-9.9,21.29c.2,2.4.75,4.9-.13,7.14-1,2.56-3.61,4.09-5.2,6.33-2.48,3.51-2.11,8.43-.2,12.28s5.12,6.88,8.26,9.82a213.24,213.24,0,0,1,48.72-31.81" style="fill:#263238"></path><path d="M61.47,233.81a21.58,21.58,0,0,1-2.55.18A16,16,0,0,0,53,235.41a9.05,9.05,0,0,0-4.21,4.15,12.91,12.91,0,0,0-.72,2.41,1.51,1.51,0,0,1,0-.69,6.07,6.07,0,0,1,.43-1.86,8.84,8.84,0,0,1,4.32-4.48,14.46,14.46,0,0,1,6.09-1.32A8.44,8.44,0,0,1,61.47,233.81Z" style="fill:#455a64"></path><path d="M216,278.86l19.51,6.3s13.55-8.33,14.32-11.38-.65-3.53-1.17-3.47c0,0,4.83-4.22,2.27-8.08,0,0,4.3-4.54,1.41-7.26l-1.57-1.28s2.09-4.19.42-7.36a2.37,2.37,0,0,0-2.94-1.06l-16,5.94-10.21,6.84Z" style="fill:#ffbe9d"></path><polygon points="239.88 251.53 245.33 231.75 249.83 231.32 245.57 247.03 239.88 251.53" style="fill:#fafafa"></polygon><path d="M217.7,272.7l4.8-15.94,17.28-12.93a5.82,5.82,0,0,1,0,5.93c-1.83,3.26-4.46,5.91-5.05,6.82s-3.07,5.62-3.07,5.62a20.41,20.41,0,0,1,.56,13.17" style="fill:#ffbe9d"></path><path d="M232.21,275.37a4.89,4.89,0,0,1,.16-.92c.07-.3.14-.68.2-1.12a14,14,0,0,0,.19-1.52,21.67,21.67,0,0,0,0-4.2,18.35,18.35,0,0,0-1.29-5.32l0-.1,0-.08,2.18-4.06.58-1.08.31-.56.39-.52,1.67-2a28.12,28.12,0,0,0,3.07-4.53,5.57,5.57,0,0,0-.11-5.37l.37.06-1.48,1.11-15.83,11.78.08-.11c-1.47,4.75-2.7,8.72-3.57,11.55-.43,1.35-.78,2.42-1,3.21l-.29.84c-.06.19-.1.29-.12.28a1.18,1.18,0,0,1,.06-.3l.22-.85c.23-.81.53-1.89.92-3.25.83-2.85,2-6.83,3.39-11.61l0-.07.06,0,15.77-11.85,1.49-1.11.23-.17.14.23a6.1,6.1,0,0,1,.14,5.9,28.26,28.26,0,0,1-3.16,4.6l-1.67,2c-.14.17-.27.33-.38.49l-.3.54-.59,1.08-2.21,4v-.18a18.21,18.21,0,0,1,1.24,5.47,20.55,20.55,0,0,1-.09,4.24,15.3,15.3,0,0,1-.25,1.53,9.29,9.29,0,0,1-.26,1.11A5.38,5.38,0,0,1,232.21,275.37Z" style="fill:#eb996e"></path><path d="M250.78,253.75a6.73,6.73,0,0,1-1.15.78l-3.24,2-4.83,2.83a5.38,5.38,0,0,1-3.27,1,2.55,2.55,0,0,1-1.68-.88,2.85,2.85,0,0,1-.59-1.86,5.92,5.92,0,0,1,1.52-3.32,32.6,32.6,0,0,1,2.2-2.51,30.22,30.22,0,0,1,4.31-3.63,26.86,26.86,0,0,1,3.26-1.95,5.62,5.62,0,0,1,1.27-.54,8,8,0,0,1-1.18.72c-.76.45-1.86,1.13-3.14,2.07a31.75,31.75,0,0,0-4.17,3.67,27.89,27.89,0,0,0-2.14,2.48,5.42,5.42,0,0,0-1.41,3,2.34,2.34,0,0,0,.47,1.52,2,2,0,0,0,1.34.7,4.88,4.88,0,0,0,3-.87l4.89-2.73,3.32-1.81A7.21,7.21,0,0,1,250.78,253.75Z" style="fill:#eb996e"></path><path d="M251,262.23a5.53,5.53,0,0,1-1,.82c-.68.5-1.68,1.19-2.93,2a49.15,49.15,0,0,1-4.54,2.7,4.54,4.54,0,0,1-1.5.56,2.28,2.28,0,0,1-1.68-.44,3.37,3.37,0,0,1-1.14-3.25,6.34,6.34,0,0,1,1.67-3,27.06,27.06,0,0,1,2.27-2.18,41.28,41.28,0,0,1,4.26-3.13c1.26-.82,2.3-1.44,3-1.85a6,6,0,0,1,1.16-.6,6.71,6.71,0,0,1-1,.77l-2.94,2a48.07,48.07,0,0,0-4.15,3.2,27.65,27.65,0,0,0-2.2,2.15,5.93,5.93,0,0,0-1.54,2.75,2.92,2.92,0,0,0,.94,2.76,1.82,1.82,0,0,0,1.31.35,4,4,0,0,0,1.34-.5c1.77-.88,3.28-1.8,4.56-2.58l3-1.88A7.19,7.19,0,0,1,251,262.23Z" style="fill:#eb996e"></path><path d="M248.69,270.31a4.21,4.21,0,0,1-.83.61c-.54.36-1.34.87-2.34,1.47a26.23,26.23,0,0,1-3.69,1.87,10.88,10.88,0,0,1-2.38.73,2.33,2.33,0,0,1-1.4-.2,1.63,1.63,0,0,1-.8-1.27,3.74,3.74,0,0,1,.12-1.42,2.79,2.79,0,0,1,.7-1.19,13.35,13.35,0,0,1,1.8-1.68,31.63,31.63,0,0,1,3.4-2.35c1-.62,1.83-1.07,2.41-1.37a3.65,3.65,0,0,1,.94-.41,4.11,4.11,0,0,1-.83.58l-2.32,1.51a37.32,37.32,0,0,0-3.29,2.41c-1.1,1-2.7,2.1-2.41,3.84a1.11,1.11,0,0,0,.52.9,1.93,1.93,0,0,0,1.1.14,11.32,11.32,0,0,0,2.26-.66,29.8,29.8,0,0,0,3.68-1.75A28,28,0,0,1,248.69,270.31Z" style="fill:#eb996e"></path><path d="M249.68,274a2.59,2.59,0,0,1-.45.81,16.41,16.41,0,0,1-1.59,2,22.43,22.43,0,0,1-2.79,2.52c-.57.43-1.17.86-1.81,1.28a6.63,6.63,0,0,1-2.19,1.1,1.9,1.9,0,0,1-1.34-.15,1.85,1.85,0,0,1-.84-1,3.13,3.13,0,0,1,.24-2.33A12,12,0,0,1,241,275a8.57,8.57,0,0,1,2-1.6,2.16,2.16,0,0,1,.86-.35,11.54,11.54,0,0,0-4.5,5.3,2.61,2.61,0,0,0-.2,1.95,1.29,1.29,0,0,0,1.59.85,6.52,6.52,0,0,0,2-1c.63-.42,1.24-.83,1.8-1.25a25.49,25.49,0,0,0,2.82-2.38C248.88,275.06,249.6,274,249.68,274Z" style="fill:#eb996e"></path><path d="M214.45,278.32l-24,51.34-21-27.42c-13.14-16.75-23.94-20.75-23.94-20.75l-19.06-5.1L87.4,274.32,84,276.27l-23.52,9.91s2.24,25.4,6.68,45.58S75.31,374,75.31,374c1.62,14.53-9.15,70.26-9.15,70.26H173.79l-23-69.24a250,250,0,0,0,6.55-25.66h0l20,13.65s30,16.86,40.92-11.48l18.9-66Z" style="fill:#FF5A6D"></path><path d="M156.1,350.43a9.09,9.09,0,0,1,0-1.5c0-.48.06-1.07,0-1.76s0-1.46,0-2.32a55.62,55.62,0,0,0-.48-6,59.22,59.22,0,0,0-1.51-7.23,57.32,57.32,0,0,0-2.49-7,55.87,55.87,0,0,0-2.72-5.39c-.41-.75-.84-1.4-1.2-2s-.68-1.08-1-1.48a10,10,0,0,1-.8-1.27,7.53,7.53,0,0,1,1,1.15c.3.39.66.86,1,1.44s.84,1.2,1.28,2a48.37,48.37,0,0,1,2.84,5.38,50.12,50.12,0,0,1,4,14.31,48.19,48.19,0,0,1,.38,6.08c0,.86,0,1.65-.06,2.33s-.08,1.28-.13,1.76A8.24,8.24,0,0,1,156.1,350.43Z" style="fill:#263238"></path><path d="M152.21,307.86c.18.06-.67,2.3-1.87,4.95a25.9,25.9,0,0,1-2.43,4.71,27.91,27.91,0,0,1,2-4.92c.61-1.33,1.17-2.53,1.6-3.38A6.32,6.32,0,0,1,152.21,307.86Z" style="fill:#263238"></path><path d="M192.16,344.41a7.5,7.5,0,0,1-1.11-2.06,20.06,20.06,0,0,1-1.41-5.48,20.43,20.43,0,0,1,.16-5.67,7.1,7.1,0,0,1,.62-2.25,35.64,35.64,0,0,0-.26,7.86A35.1,35.1,0,0,0,192.16,344.41Z" style="fill:#263238"></path><path d="M169.43,322.87c.08,0,.23,1.21.59,3.15a56.29,56.29,0,0,0,1.88,7.46,55.26,55.26,0,0,0,2.89,7.13,30.1,30.1,0,0,1,1.38,2.89s-.21-.23-.52-.69-.72-1.16-1.19-2a43.82,43.82,0,0,1-4.81-14.7c-.13-1-.21-1.79-.23-2.34A2.56,2.56,0,0,1,169.43,322.87Z" style="fill:#fafafa"></path><path d="M173.17,335.72a28.88,28.88,0,0,0,1.55-2.79,12.27,12.27,0,0,0,.72-7.47l-.06-.25.47.09a14.54,14.54,0,0,0-2.61,6.92c-.2,1.91,0,3.1-.09,3.11a2.33,2.33,0,0,1-.19-.83,11.28,11.28,0,0,1-.08-2.31,13.86,13.86,0,0,1,2.54-7.2l.34-.47.13.56.06.26a11.87,11.87,0,0,1-.9,7.74,10.78,10.78,0,0,1-1.26,2C173.43,335.53,173.2,335.74,173.17,335.72Z" style="fill:#fafafa"></path><path d="M170.14,331.82a3,3,0,0,1-.88-.31,15.44,15.44,0,0,1-2.21-1.23,17.93,17.93,0,0,1-2.9-2.42,17.67,17.67,0,0,1-1.45-1.7,11.6,11.6,0,0,1-.68-1,1.69,1.69,0,0,1-.17-1.38.93.93,0,0,1,.65-.51,1.34,1.34,0,0,1,.73.1,5.8,5.8,0,0,1,1,.66,16.36,16.36,0,0,1,1.7,1.45,16.78,16.78,0,0,1,2.4,2.91,15,15,0,0,1,1.21,2.23,3.11,3.11,0,0,1,.3.88c-.09,0-.59-1.18-1.81-2.9a18.79,18.79,0,0,0-2.43-2.77,16.77,16.77,0,0,0-1.68-1.39,4.74,4.74,0,0,0-.92-.59c-.33-.14-.61-.08-.72.15a1.24,1.24,0,0,0,.16.92c.17.3.42.63.63.93a18.25,18.25,0,0,0,1.39,1.68,20,20,0,0,0,2.76,2.44C169,331.22,170.18,331.74,170.14,331.82Z" style="fill:#fafafa"></path><path d="M171.49,340.21a2.1,2.1,0,0,1-.73.24,8.13,8.13,0,0,1-2.09.19,9.64,9.64,0,0,1-6.35-2.73l-.32-.31.42-.12.69-.19a9.8,9.8,0,0,1,7.25,1.23,8.26,8.26,0,0,1,1.76,1.42c.35.4.52.65.49.67a19.16,19.16,0,0,0-2.43-1.78,10,10,0,0,0-7-1l-.65.18.11-.43a9.84,9.84,0,0,0,6,2.73A25,25,0,0,0,171.49,340.21Z" style="fill:#fafafa"></path><path d="M86.09,344.26a3,3,0,0,1,0,.87c0,.56-.1,1.36-.24,2.34A43.68,43.68,0,0,1,84.12,355a44.42,44.42,0,0,1-3.06,7.14c-.48.87-.89,1.56-1.2,2s-.48.71-.52.7A29.33,29.33,0,0,1,80.73,362a59.2,59.2,0,0,0,2.89-7.14,57.51,57.51,0,0,0,1.88-7.46C85.86,345.47,86,344.26,86.09,344.26Z" style="fill:#fafafa"></path><path d="M82.35,357.11s-.26-.19-.62-.62a10.4,10.4,0,0,1-1.27-2,11.9,11.9,0,0,1-.89-7.73l.06-.27.12-.56.34.48a13.91,13.91,0,0,1,2.55,7.19,12.2,12.2,0,0,1-.08,2.32,2.41,2.41,0,0,1-.19.82c-.09,0,.1-1.2-.09-3.11a14.72,14.72,0,0,0-2.61-6.92l.46-.09,0,.25a12.27,12.27,0,0,0,.72,7.47A27.39,27.39,0,0,0,82.35,357.11Z" style="fill:#fafafa"></path><path d="M85.37,353.21c0-.08,1.18-.6,2.89-1.84A19.46,19.46,0,0,0,91,348.92a18,18,0,0,0,1.38-1.67,8.57,8.57,0,0,0,.63-.94,1.19,1.19,0,0,0,.16-.92c-.1-.23-.39-.28-.71-.14a5.25,5.25,0,0,0-.93.58,19.84,19.84,0,0,0-1.67,1.39A18.64,18.64,0,0,0,87.45,350c-1.22,1.72-1.72,2.95-1.81,2.91a2.74,2.74,0,0,1,.3-.88,14.11,14.11,0,0,1,1.21-2.24,16.33,16.33,0,0,1,2.4-2.91,19.22,19.22,0,0,1,1.7-1.45,5,5,0,0,1,1-.65,1.25,1.25,0,0,1,.73-.1.94.94,0,0,1,.65.5,1.65,1.65,0,0,1-.18,1.38,8.72,8.72,0,0,1-.68,1,17.42,17.42,0,0,1-4.34,4.12,14.05,14.05,0,0,1-2.22,1.23A2.51,2.51,0,0,1,85.37,353.21Z" style="fill:#fafafa"></path><path d="M84,361.6a20.06,20.06,0,0,0,2.79.07,9.72,9.72,0,0,0,6-2.73l.1.43-.64-.17a9.88,9.88,0,0,0-7,1A20.58,20.58,0,0,0,82.9,362a2.41,2.41,0,0,1,.5-.66,8.41,8.41,0,0,1,1.75-1.43,9.83,9.83,0,0,1,7.26-1.22l.68.19.43.11-.32.32A9.65,9.65,0,0,1,86.84,362a8.26,8.26,0,0,1-2.09-.18A1.77,1.77,0,0,1,84,361.6Z" style="fill:#fafafa"></path><path d="M123.22,309s.25.2.62.62.87,1,1.46,1.84a43.1,43.1,0,0,1,4,6.64,43.78,43.78,0,0,1,2.79,7.25c.26,1,.45,1.74.55,2.28a3.08,3.08,0,0,1,.12.86,30.74,30.74,0,0,1-1-3,56.13,56.13,0,0,0-2.9-7.13,57.49,57.49,0,0,0-3.85-6.66C123.9,310,123.16,309,123.22,309Z" style="fill:#fafafa"></path><path d="M129.5,320.81a2.53,2.53,0,0,1-.87,0,9.81,9.81,0,0,1-2.32-.56,11.88,11.88,0,0,1-6-4.92l-.15-.23-.3-.49.58.1a14,14,0,0,1,6.84,3.39,11.18,11.18,0,0,1,1.55,1.71c.33.44.47.71.44.72s-.76-.93-2.23-2.16a14.65,14.65,0,0,0-6.7-3.15l.28-.38.13.22a12.26,12.26,0,0,0,5.72,4.85A29.06,29.06,0,0,0,129.5,320.81Z" style="fill:#fafafa"></path><path d="M129,315.91c-.09,0,.43-1.26.78-3.34a19.26,19.26,0,0,0,.27-3.68,18.25,18.25,0,0,0-.17-2.16c-.06-.37-.11-.78-.2-1.11a1.19,1.19,0,0,0-.53-.78c-.23-.08-.47.07-.61.4a5.24,5.24,0,0,0-.26,1.07,21.19,21.19,0,0,0-.23,2.16,19.87,19.87,0,0,0,.19,3.68c.32,2.08.82,3.31.73,3.34a2.72,2.72,0,0,1-.4-.84,15.15,15.15,0,0,1-.69-2.44,16.89,16.89,0,0,1-.31-3.76,17.81,17.81,0,0,1,.21-2.23A5.27,5.27,0,0,1,128,305a1.24,1.24,0,0,1,.45-.58,1,1,0,0,1,.82-.09,1.66,1.66,0,0,1,.84,1.11,11.06,11.06,0,0,1,.21,1.19,15.62,15.62,0,0,1,.14,2.23,17.08,17.08,0,0,1-.39,3.75,14.8,14.8,0,0,1-.72,2.43A3,3,0,0,1,129,315.91Z" style="fill:#fafafa"></path><path d="M133.84,322.86a26,26,0,0,0,2-1.9,9.78,9.78,0,0,0,2.4-6.15l.37.24-.58.32a9.94,9.94,0,0,0-4.26,5.59,18.16,18.16,0,0,0-.51,3,2.22,2.22,0,0,1-.11-.82,8.28,8.28,0,0,1,.26-2.25,9.85,9.85,0,0,1,4.35-5.94l.62-.34.39-.21v.45a9.6,9.6,0,0,1-2.66,6.38,8.64,8.64,0,0,1-1.62,1.33A2.28,2.28,0,0,1,133.84,322.86Z" style="fill:#fafafa"></path><path d="M91.07,421.47s.24.2.61.62.87,1,1.46,1.84A43.92,43.92,0,0,1,100,437.82c.27.95.46,1.74.56,2.28a3.22,3.22,0,0,1,.11.86,29.46,29.46,0,0,1-1-3,57.66,57.66,0,0,0-2.9-7.13,58.86,58.86,0,0,0-3.86-6.66A27.88,27.88,0,0,1,91.07,421.47Z" style="fill:#fafafa"></path><path d="M97.34,433.29a2.53,2.53,0,0,1-.87,0,10.34,10.34,0,0,1-2.32-.56,11.88,11.88,0,0,1-6-4.92l-.14-.23-.31-.49.58.1a13.9,13.9,0,0,1,6.84,3.38,12.45,12.45,0,0,1,1.56,1.72,2.78,2.78,0,0,1,.44.72c-.08.06-.77-.93-2.24-2.16a14.6,14.6,0,0,0-6.69-3.15l.27-.38.14.22a12.22,12.22,0,0,0,5.72,4.85A29.39,29.39,0,0,0,97.34,433.29Z" style="fill:#fafafa"></path><path d="M96.8,428.38c-.09,0,.42-1.25.78-3.33a20.11,20.11,0,0,0,.27-3.68,16.7,16.7,0,0,0-.18-2.17,7.65,7.65,0,0,0-.2-1.1,1.19,1.19,0,0,0-.53-.78c-.23-.08-.47.07-.61.4a4.67,4.67,0,0,0-.25,1.07,16.53,16.53,0,0,0-.23,2.16,18.27,18.27,0,0,0,.19,3.68c.32,2.08.82,3.31.73,3.34a2.86,2.86,0,0,1-.41-.84,15.46,15.46,0,0,1-.69-2.44,17,17,0,0,1-.3-3.76,17.74,17.74,0,0,1,.2-2.23,5.87,5.87,0,0,1,.29-1.19,1.21,1.21,0,0,1,.46-.58.92.92,0,0,1,.81-.09A1.63,1.63,0,0,1,98,418a9,9,0,0,1,.21,1.19,17.28,17.28,0,0,1,.15,2.23,18.39,18.39,0,0,1-.39,3.75,16,16,0,0,1-.73,2.43A2.54,2.54,0,0,1,96.8,428.38Z" style="fill:#fafafa"></path><path d="M101.68,435.34a22.32,22.32,0,0,0,2-1.9,9.78,9.78,0,0,0,2.4-6.15l.38.24-.59.32a9.94,9.94,0,0,0-4.26,5.59,21.35,21.35,0,0,0-.51,3,2.52,2.52,0,0,1-.11-.82,8.7,8.7,0,0,1,.26-2.25,9.89,9.89,0,0,1,4.35-5.94l.62-.34.39-.21v.45a9.6,9.6,0,0,1-2.66,6.38,8.64,8.64,0,0,1-1.62,1.33A2.17,2.17,0,0,1,101.68,435.34Z" style="fill:#fafafa"></path><path d="M217.68,308.06a2.94,2.94,0,0,1-.18.85c-.14.54-.38,1.3-.72,2.24a42.8,42.8,0,0,1-3.32,7,43.81,43.81,0,0,1-4.5,6.32c-.65.76-1.2,1.35-1.6,1.73a3.33,3.33,0,0,1-.65.57,29.52,29.52,0,0,1,2-2.53A55.74,55.74,0,0,0,216.44,311,28.31,28.31,0,0,1,217.68,308.06Z" style="fill:#fafafa"></path><path d="M211.29,319.82s-.21-.24-.47-.74a10.77,10.77,0,0,1-.81-2.24,12,12,0,0,1,.77-7.75l.12-.24.24-.53.23.54a13.92,13.92,0,0,1,1,7.57,12.42,12.42,0,0,1-.57,2.25c-.19.51-.33.78-.36.76s.36-1.15.57-3.06a14.56,14.56,0,0,0-1.08-7.31h.47l-.1.24a12.23,12.23,0,0,0-.89,7.44A27.74,27.74,0,0,0,211.29,319.82Z" style="fill:#fafafa"></path><path d="M215.08,316.66c0-.1,1.28-.35,3.21-1.2a19.25,19.25,0,0,0,3.22-1.8,20,20,0,0,0,1.71-1.34,10.07,10.07,0,0,0,.81-.78,1.21,1.21,0,0,0,.35-.87c0-.24-.32-.36-.66-.29a5.13,5.13,0,0,0-1,.37,19.17,19.17,0,0,0-4.9,3.2c-1.56,1.42-2.31,2.51-2.38,2.45a2.83,2.83,0,0,1,.48-.8,14,14,0,0,1,1.65-1.92,16.25,16.25,0,0,1,3-2.33,15.9,15.9,0,0,1,2-1.06,5,5,0,0,1,1.15-.42,1.28,1.28,0,0,1,.74.06.9.9,0,0,1,.52.63,1.66,1.66,0,0,1-.46,1.31,11.18,11.18,0,0,1-.88.83,16.29,16.29,0,0,1-1.77,1.35,17.25,17.25,0,0,1-3.35,1.75,14.24,14.24,0,0,1-2.43.74A3,3,0,0,1,215.08,316.66Z" style="fill:#fafafa"></path><path d="M212,324.57a24.26,24.26,0,0,0,2.72.66,9.74,9.74,0,0,0,6.45-1.4v.45l-.59-.31a10,10,0,0,0-7-.47,18.21,18.21,0,0,0-2.76,1.22s.19-.23.62-.55a8.87,8.87,0,0,1,2-1,9.79,9.79,0,0,1,7.35.35l.63.33.39.2-.38.24a9.59,9.59,0,0,1-6.79,1.31,8.36,8.36,0,0,1-2-.62A2.34,2.34,0,0,1,212,324.57Z" style="fill:#fafafa"></path><path d="M86.35,336.44a14.47,14.47,0,0,0,1-2.66,7.87,7.87,0,0,0-1.4-6.42l.39,0-.08.09a6.45,6.45,0,0,0-1.54,3.35,6.24,6.24,0,0,0,.35,3,14.47,14.47,0,0,0,1.28,2.59A5.43,5.43,0,0,1,84.72,334a6.41,6.41,0,0,1-.48-3.21,6.71,6.71,0,0,1,1.64-3.64L86,327l.21-.23.19.25a7.72,7.72,0,0,1,1.53,3.63,8,8,0,0,1-.18,3.2,6.88,6.88,0,0,1-.86,2C86.57,336.26,86.37,336.46,86.35,336.44Z" style="fill:#fafafa"></path><path d="M137.16,300.07a13.19,13.19,0,0,0,2.37-1.58,7.82,7.82,0,0,0,2.6-6l.31.24-.11,0a6.49,6.49,0,0,0-3.22,1.82,6.37,6.37,0,0,0-1.47,2.67,15.79,15.79,0,0,0-.48,2.85,5.58,5.58,0,0,1,.12-2.95,6.47,6.47,0,0,1,1.48-2.9,6.73,6.73,0,0,1,3.45-2l.13,0,.3-.07v.31a7.63,7.63,0,0,1-.87,3.85,7.85,7.85,0,0,1-2,2.49,6.49,6.49,0,0,1-1.85,1.1A1.88,1.88,0,0,1,137.16,300.07Z" style="fill:#fafafa"></path><path d="M218.81,296.48a12.94,12.94,0,0,0,1.34-2.51,7.87,7.87,0,0,0-.57-6.55l.39.07-.09.08a6.38,6.38,0,0,0-2,3.12,6.31,6.31,0,0,0,0,3.05,15.19,15.19,0,0,0,.93,2.74,5.52,5.52,0,0,1-1.29-2.66,6.28,6.28,0,0,1-.07-3.25,6.68,6.68,0,0,1,2.09-3.4l.1-.08.23-.2.16.26a7.72,7.72,0,0,1,1.05,3.8,7.94,7.94,0,0,1-.58,3.15,6.89,6.89,0,0,1-1.11,1.84C219.06,296.33,218.83,296.5,218.81,296.48Z" style="fill:#fafafa"></path><path d="M183.56,357.28a14.06,14.06,0,0,0,1.33-2.51,7.86,7.86,0,0,0-.57-6.55l.39.07-.09.07a6.25,6.25,0,0,0-2,6.18,15.39,15.39,0,0,0,.94,2.74,5.54,5.54,0,0,1-1.3-2.66,6.5,6.5,0,0,1-.07-3.25,6.75,6.75,0,0,1,2.09-3.4l.1-.08.23-.21.16.27a7.72,7.72,0,0,1,1,3.8,8,8,0,0,1-.58,3.15,6.63,6.63,0,0,1-1.11,1.84C183.8,357.12,183.58,357.3,183.56,357.28Z" style="fill:#fafafa"></path><path d="M78.79,438a13,13,0,0,0-1.22-2.57A7.87,7.87,0,0,0,72,432l.28-.27v.11a6.46,6.46,0,0,0,1.34,3.45A6.3,6.3,0,0,0,76,437.13a14.62,14.62,0,0,0,2.75.88,5.39,5.39,0,0,1-2.9-.54,6.39,6.39,0,0,1-2.65-1.88,6.69,6.69,0,0,1-1.49-3.71v-.13l0-.3.31,0a7.63,7.63,0,0,1,3.67,1.42,7.87,7.87,0,0,1,2.18,2.34,7,7,0,0,1,.83,2A2,2,0,0,1,78.79,438Z" style="fill:#fafafa"></path><path d="M202.1,352.15c0-.09,1.54-.82,3.9-2.3a13.65,13.65,0,0,0,3.57-3.25,7.62,7.62,0,0,0,1.59-5.46c-.26-.2.35.26.28.22h-.18l-.2,0c-.13,0-.25,0-.38.06s-.5.11-.75.18a9.39,9.39,0,0,0-1.41.49,10.48,10.48,0,0,0-2.43,1.47,10.35,10.35,0,0,0-2.9,3.8,14,14,0,0,0-1,4.36,3.71,3.71,0,0,1-.07-1.23,10,10,0,0,1,.74-3.27,10.32,10.32,0,0,1,5.45-5.59,9.07,9.07,0,0,1,1.49-.53c.25-.07.52-.14.78-.19l.4-.07.21,0h.19s.55.42.29.22a8,8,0,0,1-1.72,5.83,13.08,13.08,0,0,1-3.76,3.27,29.38,29.38,0,0,1-2.95,1.54A5.94,5.94,0,0,1,202.1,352.15Z" style="fill:#fafafa"></path><path d="M153.07,437.27c0-.09,1.54-.82,3.9-2.31a13.42,13.42,0,0,0,3.57-3.24,7.63,7.63,0,0,0,1.59-5.47l.28.22h-.09l-.09,0-.2,0-.38.07c-.25,0-.5.11-.75.17a9.42,9.42,0,0,0-1.41.5,10.15,10.15,0,0,0-2.43,1.47,10.27,10.27,0,0,0-2.9,3.8,14,14,0,0,0-1,4.35,3.62,3.62,0,0,1-.07-1.22,10.3,10.3,0,0,1,3.67-7.3,10.84,10.84,0,0,1,2.52-1.57,10.09,10.09,0,0,1,1.49-.53c.25-.07.52-.13.78-.18s.27-.06.4-.07l.21,0h.2c-.06-.05.54.43.28.23a8,8,0,0,1-1.72,5.83,13.29,13.29,0,0,1-3.75,3.26,28.8,28.8,0,0,1-3,1.55A5.94,5.94,0,0,1,153.07,437.27Z" style="fill:#fafafa"></path><path d="M101.5,333.06c0-.09,1.54-.82,3.9-2.3a13.65,13.65,0,0,0,3.57-3.25,7.71,7.71,0,0,0,1.59-5.46c-.26-.2.35.26.28.22h-.19l-.19,0c-.13,0-.26,0-.38.06s-.5.11-.75.18a9.92,9.92,0,0,0-1.42.49,10.42,10.42,0,0,0-2.42,1.47,10.25,10.25,0,0,0-2.9,3.8,13.68,13.68,0,0,0-1,4.36,3.71,3.71,0,0,1-.07-1.23,10,10,0,0,1,.73-3.27,10.24,10.24,0,0,1,2.94-4,10.11,10.11,0,0,1,2.52-1.56,9.29,9.29,0,0,1,1.48-.53c.26-.07.52-.14.79-.19l.4-.07.2,0h.2l.29.22a8,8,0,0,1-1.72,5.83,13.21,13.21,0,0,1-3.76,3.27,28.3,28.3,0,0,1-3,1.54A5.75,5.75,0,0,1,101.5,333.06Z" style="fill:#fafafa"></path><path d="M139.31,204.63c-1.44-11-11.64-23-33.16-18L85,193.48a6.48,6.48,0,0,0-5.34,6.94l7.85,83.16a19.64,19.64,0,0,0,19.55,17.78h0a19.63,19.63,0,0,0,19.6-20.52c-.45-10-.79-18-.78-18s13.93-3.28,15.61-21.85C142.36,231.78,140.9,216.82,139.31,204.63Z" style="fill:#ffbe9d"></path><path d="M133.84,217.29a2.36,2.36,0,0,1-2.12,2.53,2.26,2.26,0,0,1-2.57-2,2.36,2.36,0,0,1,2.11-2.53A2.26,2.26,0,0,1,133.84,217.29Z" style="fill:#263238"></path><path d="M137,214.1c-.27.32-2.14-.88-4.68-.7s-4.31,1.57-4.6,1.28c-.15-.13.11-.71.88-1.35a6.5,6.5,0,0,1,3.66-1.4,6.2,6.2,0,0,1,3.76.94C136.83,213.41,137.13,214,137,214.1Z" style="fill:#263238"></path><path d="M109.57,218.55a2.36,2.36,0,0,1-2.12,2.53,2.26,2.26,0,0,1-2.57-2,2.36,2.36,0,0,1,2.11-2.53A2.26,2.26,0,0,1,109.57,218.55Z" style="fill:#263238"></path><path d="M111.87,215.46c-.27.33-2.15-.87-4.68-.7s-4.31,1.57-4.6,1.28c-.15-.13.11-.7.88-1.35a6.5,6.5,0,0,1,3.66-1.4,6.27,6.27,0,0,1,3.76.94C111.7,214.78,112,215.31,111.87,215.46Z" style="fill:#263238"></path><path d="M122.15,233c0-.15,1.53-.52,4.07-1,.64-.11,1.24-.28,1.32-.73a3.26,3.26,0,0,0-.56-1.89l-2.24-4.81c-3.13-6.84-5.45-12.48-5.17-12.61s3,5.33,6.17,12.17c.75,1.69,1.48,3.3,2.17,4.84a3.75,3.75,0,0,1,.5,2.52,1.59,1.59,0,0,1-1,1,4.18,4.18,0,0,1-1.09.23C123.76,233,122.16,233.12,122.15,233Z" style="fill:#263238"></path><path d="M125.91,262.87a46.83,46.83,0,0,1-25-4.91s7.08,12.55,25.35,9.6Z" style="fill:#eb996e"></path><path d="M121.48,239.16a4.58,4.58,0,0,0-4.21-1.42,4.19,4.19,0,0,0-2.78,1.74,2.65,2.65,0,0,0,0,3,3.06,3.06,0,0,0,3.38.62A9.55,9.55,0,0,0,121,241a2.83,2.83,0,0,0,.67-.8.86.86,0,0,0-.06-.94" style="fill:#eb996e"></path><path d="M114.8,235.23c.41,0,.6,2.7,3.09,4.5s5.39,1.3,5.44,1.68c0,.17-.62.58-1.85.69a6.84,6.84,0,0,1-4.54-1.24,6,6,0,0,1-2.41-3.79C114.35,235.93,114.61,235.23,114.8,235.23Z" style="fill:#263238"></path><path d="M111.89,208.41c-.2.7-2.75.55-5.7,1.11s-5.31,1.53-5.74.93c-.2-.28.17-1,1.1-1.69a10.07,10.07,0,0,1,8.72-1.56C111.39,207.57,112,208.07,111.89,208.41Z" style="fill:#263238"></path><path d="M135.8,208.17c-.41.6-2.19.12-4.3.23s-3.85.65-4.3.08c-.2-.28,0-.88.78-1.48a6,6,0,0,1,3.43-1.18,6,6,0,0,1,3.5.93C135.7,207.29,136,207.87,135.8,208.17Z" style="fill:#263238"></path><path d="M101.31,188c3.45,5.54,12.94,4.72,19.45,5.19,1.56.12,3.13.06,4.67.29a7,7,0,0,1,4.15,2C131,197,131.2,199.14,132,201a10.3,10.3,0,0,0,8.91,6.16c1.09,0,2.35-.21,2.84-1.18a3.36,3.36,0,0,0,.07-2.15c-.93-4.81-2-9.71-4.47-13.92a22.22,22.22,0,0,0-13-9.91C121,178.53,108,179.3,103.07,182" style="fill:#263238"></path><path d="M100.56,180.89c6.56,8,6.29,20.83-.6,28.57-3.92,4.41-10,8.14-9.91,14,.13,6.53,8.11,10.68,8.73,17.19.65,6.69-6.67,11.68-7.56,18.35-.71,5.36,2.92,10.33,6.93,14s8.72,6.75,11.37,11.47c2.92,5.2,2.84,11.69,1,17.37s-5.23,10.71-8.79,15.5a68.22,68.22,0,0,0-17-2.13q.23-3.27.46-6.54c.36,2.48-1.53,4.86-3.83,5.87s-4.92.95-7.42.79a120.93,120.93,0,0,1-22.78-3.61c2.79-3.38,5.62-6.83,7.17-10.92s1.6-9-1-12.56c-2.06-2.85-5.52-4.49-7.45-7.43-2.88-4.41-1.42-10.51,1.69-14.77s7.58-7.29,11.41-10.91,7.23-8.36,7.07-13.63c-.21-6.84-6.3-12.52-6.26-19.37,0-7.79,7.76-13.28,10.3-20.65,1.83-5.34,1-10.87,4.18-15.55A14.19,14.19,0,0,1,89,179.69c4.17-.18,7.83-.64,11.58,1.2" style="fill:#263238"></path><path d="M104.28,190.37a2.44,2.44,0,0,1,0,.62,12.51,12.51,0,0,1-.24,1.75,21.46,21.46,0,0,1-2.14,6.14,23.67,23.67,0,0,1-6.11,7.46,21.62,21.62,0,0,1-4.87,3,36.58,36.58,0,0,1-5.84,1.89,21.27,21.27,0,0,0-5.61,2.14,9,9,0,0,0-3.58,4.11c-1.44,3.27-1.66,6.62-2.79,9.18a12.62,12.62,0,0,1-1.93,3.19,7.46,7.46,0,0,1-2.2,1.77,5.24,5.24,0,0,1-1.71.52,2.27,2.27,0,0,1-.62,0,6.8,6.8,0,0,0,2.23-.71,7.41,7.41,0,0,0,2.07-1.78,12.3,12.3,0,0,0,1.82-3.14c1.06-2.5,1.23-5.84,2.69-9.24A9.5,9.5,0,0,1,79.17,213a21.24,21.24,0,0,1,5.75-2.21,38.07,38.07,0,0,0,5.76-1.86A21.5,21.5,0,0,0,95.46,206a23.82,23.82,0,0,0,6.08-7.26,22.65,22.65,0,0,0,2.27-6C104.15,191.22,104.22,190.37,104.28,190.37Z" style="fill:#455a64"></path><path d="M152.77,209.39a5.46,5.46,0,0,0-.79-.8,4.61,4.61,0,0,0-2.9-.73c-.64,0-1.36.11-2.14.17a17.56,17.56,0,0,1-2.51,0,17.18,17.18,0,0,1-5.57-1.41,16.82,16.82,0,0,1-7.69-6.87,15.49,15.49,0,0,1-1.3-2.87,3.65,3.65,0,0,1-.28-1.12,35.48,35.48,0,0,0,1.9,3.8,17.23,17.23,0,0,0,7.58,6.59,17.54,17.54,0,0,0,5.4,1.4,18.43,18.43,0,0,0,2.44.06c.77,0,1.5-.11,2.17-.11a4.61,4.61,0,0,1,3,.94,2.44,2.44,0,0,1,.56.67C152.76,209.28,152.78,209.38,152.77,209.39Z" style="fill:#455a64"></path><path d="M149.67,195.55a2.14,2.14,0,0,1-.58,0,11.47,11.47,0,0,1-1.65-.25,12,12,0,0,1-5.38-2.9A12.44,12.44,0,0,1,139.5,189c-.72-1.36-1.3-2.88-2-4.41a12.65,12.65,0,0,0-3-4.26,12,12,0,0,0-4.94-2.57,19.09,19.09,0,0,0-10.77.72A70.35,70.35,0,0,0,110.5,182c-2.33,1.12-4.24,2-5.6,2.47-.68.25-1.21.42-1.58.53a2.17,2.17,0,0,1-.56.14,2.21,2.21,0,0,1,.53-.24l1.54-.62c1.32-.56,3.2-1.44,5.5-2.61a64.85,64.85,0,0,1,8.3-3.69,19.21,19.21,0,0,1,11.05-.77,12.52,12.52,0,0,1,5.15,2.68,13.13,13.13,0,0,1,3.08,4.45c.72,1.56,1.29,3.07,2,4.41a12.07,12.07,0,0,0,2.42,3.34,12.24,12.24,0,0,0,5.18,3C148.87,195.49,149.68,195.49,149.67,195.55Z" style="fill:#455a64"></path><path d="M78.53,191.87a3.92,3.92,0,0,1,.25-1.08,12.48,12.48,0,0,1,1.33-2.74,13.27,13.27,0,0,1,17.8-4.49,12.11,12.11,0,0,1,2.47,1.78,3.68,3.68,0,0,1,.74.84,21.52,21.52,0,0,0-3.38-2.29,13.33,13.33,0,0,0-17.33,4.37A22.26,22.26,0,0,0,78.53,191.87Z" style="fill:#455a64"></path><path d="M65.2,312.5s.43,0,1.21-.21a7.56,7.56,0,0,0,3.11-1.5,10.51,10.51,0,0,0,3.21-4.41A11.2,11.2,0,0,0,73.5,303a14.49,14.49,0,0,0-.29-3.83,26.27,26.27,0,0,0-3.51-8.13c-1.67-2.74-3.76-5.48-5.58-8.64a26.64,26.64,0,0,1-2.31-5.11,19.19,19.19,0,0,1-.87-5.79,21.26,21.26,0,0,1,3.61-11.63,20.16,20.16,0,0,1,4.24-4.59A33.45,33.45,0,0,1,74,252.2a26.53,26.53,0,0,0,4.88-3A10.66,10.66,0,0,0,82,244.81a20.09,20.09,0,0,0,.59-10c-.49-3.17-1.21-6.1-1.49-8.84a22.76,22.76,0,0,1,.36-7.41,15.52,15.52,0,0,1,2-5.21A7.2,7.2,0,0,1,86,210.86a3.63,3.63,0,0,1,.84-.36,1.13,1.13,0,0,1,.31-.09s-.41.13-1.1.54a7.35,7.35,0,0,0-2.42,2.47,15.79,15.79,0,0,0-1.92,5.16,22.9,22.9,0,0,0-.27,7.31c.29,2.71,1,5.62,1.55,8.81A20.51,20.51,0,0,1,82.43,245a11.15,11.15,0,0,1-3.26,4.58,27.38,27.38,0,0,1-5,3.1,31.24,31.24,0,0,0-5.1,3.07A19.57,19.57,0,0,0,65,260.2a20.78,20.78,0,0,0-3.53,11.34,18.87,18.87,0,0,0,.83,5.64,25.89,25.89,0,0,0,2.26,5c1.78,3.13,3.86,5.88,5.53,8.66a26.38,26.38,0,0,1,3.5,8.27,15.25,15.25,0,0,1,.26,3.94,11.36,11.36,0,0,1-.83,3.42A10.62,10.62,0,0,1,69.65,311a7.43,7.43,0,0,1-3.22,1.45A5.18,5.18,0,0,1,65.2,312.5Z" style="fill:#455a64"></path><path d="M145.27,282.24a7.23,7.23,0,0,0,1.7-2.64,12.4,12.4,0,0,0-.69-8.41c-.63-1.71-1.5-3.54-2.14-5.63a14.77,14.77,0,0,1-.62-3.33c0-.59,0-1.19,0-1.79s.22-1.19.32-1.8a22,22,0,0,1,3.34-6.9c1.49-2.21,3.2-4.35,4.79-6.65a22,22,0,0,0,3.54-7.22,11.07,11.07,0,0,0-.79-7.28,26.73,26.73,0,0,0-3.8-5.67c-1.36-1.66-2.72-3.17-3.76-4.7a19.8,19.8,0,0,1-2.35-4.4,11.21,11.21,0,0,1-.73-3.7,8.12,8.12,0,0,1,.32-2.36,4.36,4.36,0,0,1,.3-.77,10.09,10.09,0,0,0-.41,3.13,11.42,11.42,0,0,0,.79,3.6,20.54,20.54,0,0,0,2.38,4.29c1,1.49,2.41,3,3.79,4.64a26.31,26.31,0,0,1,3.91,5.74,11.52,11.52,0,0,1,.84,7.59,22.08,22.08,0,0,1-3.61,7.41c-1.59,2.31-3.31,4.45-4.78,6.63a21.79,21.79,0,0,0-3.3,6.73c-.11.59-.26,1.16-.32,1.74s0,1.15-.06,1.71a14.27,14.27,0,0,0,.58,3.24c.61,2.05,1.45,3.89,2.07,5.63a12.44,12.44,0,0,1,.53,8.6,5.81,5.81,0,0,1-1.26,2,3.71,3.71,0,0,1-.45.42A.91.91,0,0,1,145.27,282.24Z" style="fill:#455a64"></path><path d="M42.42,300.39a2.86,2.86,0,0,1-.39-.82,5.56,5.56,0,0,1-.15-2.63,9.83,9.83,0,0,1,1.61-3.83c.88-1.36,2.12-2.74,3.15-4.47a12.75,12.75,0,0,0,1.62-6.26,57,57,0,0,0-.56-7.56,22.52,22.52,0,0,1,.34-8.46,17.88,17.88,0,0,1,4.75-7.72,72.69,72.69,0,0,1,6.89-5.9A60.25,60.25,0,0,0,66,247.17c3.75-3.8,6.49-7.89,7.68-11.76a23.2,23.2,0,0,0,1-5.33,26.78,26.78,0,0,0-.08-4.11c-.06-.56-.11-1.05-.16-1.49s-.12-.79-.17-1.09l-.1-.68a.8.8,0,0,1,0-.23.8.8,0,0,1,.07.22l.15.67c.06.3.14.66.22,1.08s.14.94.21,1.5a26,26,0,0,1,.17,4.15,23.22,23.22,0,0,1-.94,5.42c-1.16,3.95-3.92,8.13-7.68,12a58.8,58.8,0,0,1-6.3,5.63A75.63,75.63,0,0,0,53.17,259a17.49,17.49,0,0,0-4.64,7.5,22.28,22.28,0,0,0-.35,8.27,58.59,58.59,0,0,1,.52,7.63A13.25,13.25,0,0,1,47,288.83c-1.08,1.76-2.34,3.11-3.23,4.45a9.91,9.91,0,0,0-1.65,3.7,5.55,5.55,0,0,0,.05,2.56C42.29,300.11,42.45,300.38,42.42,300.39Z" style="fill:#455a64"></path><path d="M94,316.73a24,24,0,0,0,2.35-3.9,20,20,0,0,0,1.55-5.08A19.1,19.1,0,0,0,94.27,293a83,83,0,0,0-6.48-7.42,30.74,30.74,0,0,1-6.22-9,14.49,14.49,0,0,1-1.18-5.72,12.19,12.19,0,0,1,1.58-5.8c2-3.57,5-6.25,7-9.4a13.93,13.93,0,0,0,2.14-5,15.91,15.91,0,0,0,.06-5.24,34.78,34.78,0,0,0-3-9.3,80.75,80.75,0,0,1-3.35-8c-1.77-5-1.27-9.62,0-12.3A9.41,9.41,0,0,1,86.65,213a6.11,6.11,0,0,1,.88-.8s-.29.29-.8.87A9.81,9.81,0,0,0,85,215.94c-1.16,2.67-1.6,7.15.19,12.1a84.1,84.1,0,0,0,3.39,7.9,34.71,34.71,0,0,1,3.13,9.41,16.4,16.4,0,0,1-.06,5.41,14.21,14.21,0,0,1-2.2,5.19c-2.08,3.22-5.05,5.9-7,9.37a11.8,11.8,0,0,0-1.53,5.56A14.38,14.38,0,0,0,82,276.4a30.58,30.58,0,0,0,6.1,8.89,79.88,79.88,0,0,1,6.48,7.49,19.62,19.62,0,0,1,3.5,7.89,19.8,19.8,0,0,1-1.61,12.25,17.41,17.41,0,0,1-1.77,2.9l-.56.69Z" style="fill:#455a64"></path><polygon points="91.28 377.21 108.42 335.93 165.93 362.27 133.83 436.75 75.4 415.51 91.28 377.21" style="fill:#FF5A6D"></polygon><g style="opacity:0.30000000000000004"><polygon points="91.28 377.21 108.42 335.93 165.93 362.27 133.83 436.75 75.4 415.51 91.28 377.21"></polygon></g><polygon points="165.93 362.27 133.83 436.75 145.37 440.86 177.03 367.6 165.93 362.27" style="fill:#FF5A6D"></polygon><g style="opacity:0.5"><polygon points="165.93 362.27 133.83 436.75 145.37 440.86 177.03 367.6 165.93 362.27"></polygon></g><polygon points="116.73 339.01 120.66 331.12 174.36 357.18 171.62 364.2 116.73 339.01" style="fill:#e0e0e0"></polygon><polygon points="110.7 336.98 112.25 333.41 173.53 362.27 172.41 365.39 110.7 336.98" style="fill:#fafafa"></polygon><path d="M167.3,377.06c.13.06-4.5,11.4-10.35,25.34s-10.7,25.19-10.83,25.13,4.5-11.4,10.35-25.34S167.17,377,167.3,377.06Z" style="fill:#fff"></path><path d="M114.35,352.73l.17.07.54.23,2.11.93,8,3.56,28.09,12.64.21.1-.09.22c-3.38,7.73-7.11,16.26-11,25.22l-.1.23-.24-.1-.07,0-38.3-16.31-.19-.08.08-.19c3.27-8.08,6-14.71,7.86-19.37.93-2.27,1.67-4.05,2.18-5.3l.57-1.37a2.76,2.76,0,0,1,.21-.45s-.06.18-.18.51-.32.82-.55,1.42c-.49,1.27-1.19,3.08-2.09,5.39-1.83,4.64-4.44,11.27-7.62,19.32l-.11-.27,38.34,16.22.07,0-.34.14c3.93-8.95,7.67-17.47,11.06-25.21l.12.32-27.83-12.79-8-3.71-2.14-1-.55-.27Z" style="fill:#fff"></path><path d="M143.29,386.34a4.06,4.06,0,0,1-.36-.8l-.88-2.31c-.77-2.08-1.81-4.93-3.06-8.33l.28.14-10.75,3.52-.2.06-.11-.17L127.3,377,124,371.52l.31.11-12.63,4.87-3.69,1.37a8.89,8.89,0,0,1-1.36.44,8.78,8.78,0,0,1,1.29-.6l3.64-1.51,12.56-5,.2-.08.11.18,3.36,5.43c.31.51.63,1,.92,1.48l-.3-.11,10.77-3.45.21-.06.07.2,2.88,8.39c.32,1,.57,1.75.77,2.36A4.73,4.73,0,0,1,143.29,386.34Z" style="fill:#fff"></path><path d="M132.79,370s-.06-.2-.17-.51a2.25,2.25,0,0,0-.8-1.08,2,2,0,0,0-1.87-.23,1.95,1.95,0,0,0,0,3.64,2,2,0,0,0,1.87-.24,2.19,2.19,0,0,0,.8-1.08c.11-.31.12-.5.17-.5s.08.19,0,.55a2.2,2.2,0,0,1-.78,1.32,2.34,2.34,0,0,1-2.25.4,2.4,2.4,0,0,1,0-4.54,2.34,2.34,0,0,1,2.25.39,2.23,2.23,0,0,1,.78,1.32C132.87,369.75,132.82,370,132.79,370Z" style="fill:#fff"></path><path d="M161.15,360.16s-3.92-7.62-11-5.05c-2.77,1-9,19.79-9,19.79l4-1.27,2.5,4.17s8-19.7,9.23-19.53Z" style="fill:#FF5A6D"></path><path d="M141.68,401.57A12,12,0,0,1,140,401l-4.54-1.7c-3.82-1.45-9.09-3.5-14.89-5.79s-11-4.38-14.84-5.93l-4.47-1.85a10.29,10.29,0,0,1-1.6-.74,13.05,13.05,0,0,1,1.69.56l4.54,1.7c3.82,1.46,9.08,3.5,14.89,5.79s11,4.38,14.82,5.92l4.47,1.85A11.23,11.23,0,0,1,141.68,401.57Z" style="fill:#fff"></path><path d="M139.33,404.77a9.71,9.71,0,0,1-1.69-.55l-4.54-1.7c-3.82-1.46-9.09-3.5-14.89-5.79s-11-4.39-14.84-5.93L98.91,389a11.48,11.48,0,0,1-1.61-.74,10.89,10.89,0,0,1,1.69.56l4.54,1.7c3.82,1.45,9.08,3.49,14.89,5.78s11,4.38,14.82,5.93l4.47,1.85A14,14,0,0,1,139.33,404.77Z" style="fill:#fff"></path><path d="M138.05,409.07a9.71,9.71,0,0,1-1.69-.55l-4.54-1.7c-3.82-1.46-9.09-3.5-14.89-5.79s-11.05-4.39-14.84-5.93l-4.47-1.85a11.63,11.63,0,0,1-1.6-.74,10,10,0,0,1,1.69.56l4.54,1.7c3.82,1.45,9.08,3.49,14.89,5.78s11,4.38,14.82,5.93l4.47,1.85A14,14,0,0,1,138.05,409.07Z" style="fill:#fff"></path><path d="M111.26,397.32l8.65,4.35s6.89-3.36,10.32-3.86,18.19,1.4,18.19,1.4a3.71,3.71,0,0,1-2.56,4c-1.32.4-8.59-.05-8.59-.05h0a3.66,3.66,0,0,0,1,6.15c3.7,1.53,8,3.34,8.5,3.67s5.88-.62,9.83-1.41c2.37-.48,4.08,2.55,2.24,4.12a1.14,1.14,0,0,1-.6.3s3.55,2.13-2.58,4.8c0,0-2.08,4.78-5.91,5.11,0,0-4.48,4.5-7.28,5.24s-21-6.21-21-6.21l-17.7-9.18Z" style="fill:#ffbe9d"></path><path d="M141.93,431.18c-4,0-20.31-6.2-20.48-6.27l-17.73-9.19v0l7.52-18.41h0l8.64,4.34c.32-.15,7-3.37,10.31-3.86a11.9,11.9,0,0,1,1.62-.08c5,0,16.46,1.47,16.59,1.48h0v0a3.76,3.76,0,0,1-2.58,4c-1.29.4-8.28,0-8.59-.05a3.63,3.63,0,0,0-1.2,3.33,3.59,3.59,0,0,0,2.19,2.77c3.6,1.5,8,3.35,8.5,3.68s3.91-.23,9.82-1.42a2.94,2.94,0,0,1,.51-.05,2.59,2.59,0,0,1,2.28,1.48,2.21,2.21,0,0,1-.53,2.74,1.23,1.23,0,0,1-.56.3,2.09,2.09,0,0,1,1,1.67c-.07,1.07-1.29,2.12-3.61,3.13a11.91,11.91,0,0,1-1.52,2.43,6.64,6.64,0,0,1-4.4,2.68c-.19.2-4.56,4.52-7.28,5.24A2,2,0,0,1,141.93,431.18ZM103.79,415.7l17.68,9.17c.17.06,16.45,6.26,20.46,6.26a2,2,0,0,0,.53-.06c2.76-.72,7.22-5.19,7.27-5.23h0a6.61,6.61,0,0,0,4.37-2.67,11.94,11.94,0,0,0,1.52-2.42h0c2.31-1,3.52-2.05,3.59-3.09a2.09,2.09,0,0,0-1-1.67l-.06,0h.07a1.22,1.22,0,0,0,.6-.3,2.17,2.17,0,0,0,.51-2.68,2.49,2.49,0,0,0-2.73-1.4,74.83,74.83,0,0,1-9.3,1.49,1.18,1.18,0,0,1-.56-.08c-.4-.26-3.34-1.53-8.49-3.67a3.69,3.69,0,0,1-1-6.19h0c.07,0,7.28.46,8.58.05a3.42,3.42,0,0,0,2.37-2.3,4.29,4.29,0,0,0,.18-1.61c-.54-.07-11.64-1.49-16.55-1.49a11.56,11.56,0,0,0-1.62.09c-3.38.5-10.24,3.83-10.31,3.86h0l-8.63-4.33Z" style="fill:#eb996e"></path><path d="M136.49,415.15a11.76,11.76,0,0,0,2.81,1.92,18,18,0,0,0,7.87,2.59,16.67,16.67,0,0,0,8-2.1,11.29,11.29,0,0,0,2.9-1.8,15.58,15.58,0,0,0-3.16,1.23,18.46,18.46,0,0,1-7.72,1.79,20.46,20.46,0,0,1-7.61-2.26A14.43,14.43,0,0,0,136.49,415.15Z" style="fill:#eb996e"></path><path d="M135.73,419.92c-.08.09.78,1,2.48,1.9a21.18,21.18,0,0,0,3.09,1.41,10.53,10.53,0,0,0,4.16.8,18.65,18.65,0,0,0,4.09-.93l3.17-1.05a10.57,10.57,0,0,0,2.87-1.18,11.08,11.08,0,0,0-3,.58c-.92.23-2,.52-3.24.87a21.12,21.12,0,0,1-3.91.83,10.81,10.81,0,0,1-3.84-.68,31.82,31.82,0,0,1-3.07-1.21C136.77,420.49,135.81,419.82,135.73,419.92Z" style="fill:#eb996e"></path><path d="M135.31,425.5c-.14.32,3.1,1.57,7.09,2.82a3.42,3.42,0,0,0,1.73.05,11.74,11.74,0,0,0,1.44-.32,13.84,13.84,0,0,0,2.32-.87c1.27-.61,1.92-1.23,1.85-1.32a11.12,11.12,0,0,0-2.09.75,22.68,22.68,0,0,1-2.28.65,11.85,11.85,0,0,1-1.37.26,2.84,2.84,0,0,1-1.31,0c-2-.65-3.86-1.15-5.19-1.5A8.71,8.71,0,0,0,135.31,425.5Z" style="fill:#eb996e"></path><path d="M59.24,285.49S49.09,292,43,310.07c-5.15,15.34-15.91,40.1-19.45,57.74-2.59,12.85,3.49,28.06,19.49,32.4l60.7,18.24L113,395.67,58.56,368l14.93-34Z" style="fill:#FF5A6D"></path><path d="M37.65,398.16a1.58,1.58,0,0,1,.34.08l1,.27,3.76,1.11,13.92,4.19,47.19,14.4-.31.14,5.9-14.5c1.15-2.8,2.28-5.57,3.38-8.28l.12.33C101.53,390.27,91,384.79,81.78,380s-17.18-8.83-23.29-11.88h0a11.52,11.52,0,0,0-6.07.44,13.07,13.07,0,0,0-4,2.24,12.18,12.18,0,0,0-1.25,1.09,9.25,9.25,0,0,0-.84.88l-.5.55c-.11.12-.18.18-.18.17s0-.07.15-.2l.47-.58a8.6,8.6,0,0,1,.82-.9,10.83,10.83,0,0,1,1.23-1.13,13,13,0,0,1,4-2.33,11.72,11.72,0,0,1,6.23-.52h0c6.14,3,14.11,7,23.36,11.76s19.79,10.19,31.17,15.82l.22.11-.09.22-3.37,8.28L104,418.55l-.09.21-.22-.06L56.54,404.13l-13.88-4.34-3.72-1.19-1-.32Z" style="fill:#263238"></path><path d="M76.05,315.89a2,2,0,0,1,.18.54,10.66,10.66,0,0,1,.34,1.59,20.19,20.19,0,0,1,0,6,39.27,39.27,0,0,1-2.35,8.56c-1.2,3.12-2.73,6.45-4.28,10-3.13,7-6,13.31-8.06,18l-2.49,5.42c-.29.59-.52,1.08-.71,1.46a3.36,3.36,0,0,1-.27.5,1.86,1.86,0,0,1,.18-.54l.61-1.5c.58-1.37,1.38-3.22,2.35-5.49,2-4.67,4.83-11,7.91-18,1.55-3.52,3.1-6.84,4.32-9.93A40.12,40.12,0,0,0,76.22,324a21.9,21.9,0,0,0,.15-5.9c-.06-.7-.18-1.23-.24-1.6A2.88,2.88,0,0,1,76.05,315.89Z" style="fill:#263238"></path><path d="M48.72,323.9c.08,0,.23,1.21.59,3.15a57.91,57.91,0,0,0,1.88,7.46,56.74,56.74,0,0,0,2.89,7.13,30.1,30.1,0,0,1,1.38,2.89s-.21-.23-.52-.69-.72-1.15-1.19-2a43.82,43.82,0,0,1-4.81-14.7c-.13-1-.21-1.79-.23-2.34A2.56,2.56,0,0,1,48.72,323.9Z" style="fill:#fafafa"></path><path d="M52.46,336.75A28.88,28.88,0,0,0,54,334a12.27,12.27,0,0,0,.72-7.47l-.06-.25.47.09a14.54,14.54,0,0,0-2.61,6.92c-.2,1.91,0,3.1-.09,3.11a2.63,2.63,0,0,1-.19-.83,11.28,11.28,0,0,1-.08-2.31,14,14,0,0,1,2.54-7.2l.34-.47.13.56.06.27a11.84,11.84,0,0,1-.9,7.73,10,10,0,0,1-1.26,2C52.72,336.56,52.49,336.77,52.46,336.75Z" style="fill:#fafafa"></path><path d="M49.43,332.85a2.65,2.65,0,0,1-.88-.31,15.44,15.44,0,0,1-2.21-1.23,17.93,17.93,0,0,1-2.9-2.42,17.67,17.67,0,0,1-1.45-1.7,9.66,9.66,0,0,1-.67-1,1.65,1.65,0,0,1-.18-1.38.89.89,0,0,1,.65-.5,1.26,1.26,0,0,1,.73.09,5.8,5.8,0,0,1,1,.66,16.36,16.36,0,0,1,1.7,1.45,16.78,16.78,0,0,1,2.4,2.91,14.09,14.09,0,0,1,1.21,2.23,2.67,2.67,0,0,1,.3.89c-.09,0-.59-1.19-1.81-2.91a18.22,18.22,0,0,0-2.43-2.77,17.83,17.83,0,0,0-1.67-1.39,5.73,5.73,0,0,0-.93-.59c-.33-.14-.61-.08-.72.15a1.2,1.2,0,0,0,.17.92,10,10,0,0,0,.62.93A18.86,18.86,0,0,0,46.55,331C48.25,332.25,49.47,332.77,49.43,332.85Z" style="fill:#fafafa"></path><path d="M50.78,341.24a2.1,2.1,0,0,1-.73.25,8.7,8.7,0,0,1-2.09.18,9.64,9.64,0,0,1-6.35-2.73l-.32-.31.43-.12.68-.18a9.78,9.78,0,0,1,7.26,1.22A8.42,8.42,0,0,1,51.41,341c.36.4.52.65.49.67a19.16,19.16,0,0,0-2.43-1.78,10,10,0,0,0-6.95-1l-.65.18.11-.43a9.72,9.72,0,0,0,6,2.73A22.22,22.22,0,0,0,50.78,341.24Z" style="fill:#fafafa"></path><path d="M56,392.86s.26-.18.77-.4,1.26-.53,2.19-.85a43.83,43.83,0,0,1,15.29-2.36c1,0,1.8.09,2.35.15a3.3,3.3,0,0,1,.85.15,26.12,26.12,0,0,1-3.2.07,58.48,58.48,0,0,0-7.67.64,59.82,59.82,0,0,0-7.5,1.7C57.21,392.52,56.06,392.93,56,392.86Z" style="fill:#fafafa"></path><path d="M69.19,390.39a3.08,3.08,0,0,1-.28.83,10.3,10.3,0,0,1-1.23,2,11.81,11.81,0,0,1-6.5,4.29l-.26.07-.56.14.27-.51a13.94,13.94,0,0,1,5.27-5.52,11,11,0,0,1,2.1-1,2.5,2.5,0,0,1,.82-.2c0,.09-1.11.45-2.73,1.49a14.65,14.65,0,0,0-5,5.45l-.28-.38.25-.06a12.24,12.24,0,0,0,6.33-4A28.87,28.87,0,0,0,69.19,390.39Z" style="fill:#fafafa"></path><path d="M64.34,389.45c-.06.08-1.07-.78-3-1.74A19.16,19.16,0,0,0,58,386.36a16.86,16.86,0,0,0-2.12-.48,9,9,0,0,0-1.12-.14,1.15,1.15,0,0,0-.89.27c-.16.2-.08.47.19.7a5.31,5.31,0,0,0,.94.56,18.09,18.09,0,0,0,2,.87,18.36,18.36,0,0,0,3.57.91c2.08.32,3.4.21,3.41.31a3.13,3.13,0,0,1-.93.13,14.29,14.29,0,0,1-2.53-.07,16.8,16.8,0,0,1-3.68-.83,17.84,17.84,0,0,1-2.07-.86,5.61,5.61,0,0,1-1-.63,1.31,1.31,0,0,1-.42-.61.89.89,0,0,1,.16-.8,1.63,1.63,0,0,1,1.31-.47,10.44,10.44,0,0,1,1.19.15,17,17,0,0,1,2.18.53,17.42,17.42,0,0,1,3.46,1.49,14.49,14.49,0,0,1,2.11,1.42A2.84,2.84,0,0,1,64.34,389.45Z" style="fill:#fafafa"></path><path d="M72.43,386.86a21.51,21.51,0,0,0-1.2-2.52,9.73,9.73,0,0,0-5.15-4.13l.34-.29c0,.21.08.43.13.66a10,10,0,0,0,4.06,5.73,20.26,20.26,0,0,0,2.69,1.38,2.47,2.47,0,0,1-.82-.14,8.79,8.79,0,0,1-2.07-.93A9.84,9.84,0,0,1,66,380.7c0-.24-.09-.47-.14-.69l-.08-.43.42.14a9.59,9.59,0,0,1,5.3,4.44,7.75,7.75,0,0,1,.78,1.94A1.9,1.9,0,0,1,72.43,386.86Z" style="fill:#fafafa"></path><path d="M66.62,327.66a14,14,0,0,0,1-2.66,7.91,7.91,0,0,0-1.41-6.42l.4,0-.08.09a6.23,6.23,0,0,0-1.2,6.38,15.35,15.35,0,0,0,1.28,2.59A5.43,5.43,0,0,1,65,325.19a6.41,6.41,0,0,1-.48-3.21,6.71,6.71,0,0,1,1.64-3.64l.08-.1.21-.23.19.25a7.62,7.62,0,0,1,1.53,3.63,8,8,0,0,1-.18,3.2,6.61,6.61,0,0,1-.86,2C66.84,327.48,66.64,327.68,66.62,327.66Z" style="fill:#fafafa"></path><path d="M88.83,401.11a13.2,13.2,0,0,0,1-2.66A7.88,7.88,0,0,0,88.43,392l.4,0-.08.09a6.23,6.23,0,0,0-1.2,6.38,15.35,15.35,0,0,0,1.28,2.59,5.43,5.43,0,0,1-1.63-2.47,6.41,6.41,0,0,1-.48-3.21,6.71,6.71,0,0,1,1.64-3.64l.08-.1.21-.23.19.25a7.62,7.62,0,0,1,1.53,3.63,7.86,7.86,0,0,1-.18,3.2,6.61,6.61,0,0,1-.86,2C89.05,400.93,88.85,401.13,88.83,401.11Z" style="fill:#fafafa"></path><path d="M34.63,365.88c-.05-.09,1.54-.82,3.9-2.31a13.42,13.42,0,0,0,3.57-3.24,7.71,7.71,0,0,0,1.59-5.46c-.26-.2.35.26.28.22h-.19l-.19,0c-.13,0-.25,0-.38.06l-.75.17a11.36,11.36,0,0,0-1.42.5,10.42,10.42,0,0,0-2.42,1.47,10.25,10.25,0,0,0-2.9,3.8,13.68,13.68,0,0,0-1,4.36,3.76,3.76,0,0,1-.07-1.23,9.92,9.92,0,0,1,.73-3.27,10.24,10.24,0,0,1,2.94-4,10.37,10.37,0,0,1,4-2.09c.26-.07.52-.14.79-.19l.4-.07.21,0h.19l.29.22a8,8,0,0,1-1.72,5.83,13.21,13.21,0,0,1-3.76,3.27,28.3,28.3,0,0,1-3,1.54A5.75,5.75,0,0,1,34.63,365.88Z" style="fill:#fafafa"></path></g></svg>